<?xml version="1.0" encoding="UTF-8"?>
<svg xmlns="http://www.w3.org/2000/svg" xmlns:xlink="http://www.w3.org/1999/xlink" width="2799.31" height="2799.31" viewBox="0 0 2799.31 2799.31">
<defs>
<clipPath id="clip-0">
<path clip-rule="nonzero" d="M 0 0.0117188 L 2799.300781 0.0117188 L 2799.300781 2799.308594 L 0 2799.308594 Z M 0 0.0117188 "/>
</clipPath>
<radialGradient id="radial-pattern-0" gradientUnits="userSpaceOnUse" cx="0" cy="0" fx="0" fy="0" r="2258.92" gradientTransform="matrix(1, 0, 0, 1, 1399.66, 1399.66)">
<stop offset="0" stop-color="rgb(100%, 100%, 100%)" stop-opacity="1"/>
<stop offset="0.25" stop-color="rgb(100%, 100%, 100%)" stop-opacity="1"/>
<stop offset="0.34375" stop-color="rgb(100%, 100%, 100%)" stop-opacity="1"/>
<stop offset="0.382812" stop-color="rgb(99.943542%, 99.943542%, 99.943542%)" stop-opacity="1"/>
<stop offset="0.398438" stop-color="rgb(99.716187%, 99.711609%, 99.711609%)" stop-opacity="1"/>
<stop offset="0.40625" stop-color="rgb(99.371338%, 99.362183%, 99.362183%)" stop-opacity="1"/>
<stop offset="0.414062" stop-color="rgb(99.026489%, 99.01123%, 99.01123%)" stop-opacity="1"/>
<stop offset="0.421875" stop-color="rgb(98.681641%, 98.661804%, 98.661804%)" stop-opacity="1"/>
<stop offset="0.429688" stop-color="rgb(98.336792%, 98.312378%, 98.312378%)" stop-opacity="1"/>
<stop offset="0.4375" stop-color="rgb(97.991943%, 97.961426%, 97.961426%)" stop-opacity="1"/>
<stop offset="0.445312" stop-color="rgb(97.647095%, 97.612%, 97.612%)" stop-opacity="1"/>
<stop offset="0.453125" stop-color="rgb(97.302246%, 97.262573%, 97.262573%)" stop-opacity="1"/>
<stop offset="0.460938" stop-color="rgb(96.957397%, 96.911621%, 96.911621%)" stop-opacity="1"/>
<stop offset="0.46875" stop-color="rgb(96.612549%, 96.562195%, 96.562195%)" stop-opacity="1"/>
<stop offset="0.476562" stop-color="rgb(96.2677%, 96.212769%, 96.212769%)" stop-opacity="1"/>
<stop offset="0.484375" stop-color="rgb(95.922852%, 95.861816%, 95.861816%)" stop-opacity="1"/>
<stop offset="0.492188" stop-color="rgb(95.578003%, 95.51239%, 95.51239%)" stop-opacity="1"/>
<stop offset="0.5" stop-color="rgb(95.233154%, 95.162964%, 95.162964%)" stop-opacity="1"/>
<stop offset="0.507812" stop-color="rgb(94.973755%, 94.900513%, 94.900513%)" stop-opacity="1"/>
<stop offset="0.511719" stop-color="rgb(94.801331%, 94.725037%, 94.725037%)" stop-opacity="1"/>
<stop offset="0.515625" stop-color="rgb(94.628906%, 94.549561%, 94.549561%)" stop-opacity="1"/>
<stop offset="0.519531" stop-color="rgb(94.456482%, 94.37561%, 94.37561%)" stop-opacity="1"/>
<stop offset="0.523438" stop-color="rgb(94.284058%, 94.200134%, 94.200134%)" stop-opacity="1"/>
<stop offset="0.527344" stop-color="rgb(94.111633%, 94.024658%, 94.024658%)" stop-opacity="1"/>
<stop offset="0.53125" stop-color="rgb(93.939209%, 93.850708%, 93.850708%)" stop-opacity="1"/>
<stop offset="0.535156" stop-color="rgb(93.766785%, 93.675232%, 93.675232%)" stop-opacity="1"/>
<stop offset="0.539062" stop-color="rgb(93.59436%, 93.499756%, 93.499756%)" stop-opacity="1"/>
<stop offset="0.542969" stop-color="rgb(93.421936%, 93.325806%, 93.325806%)" stop-opacity="1"/>
<stop offset="0.546875" stop-color="rgb(93.249512%, 93.15033%, 93.15033%)" stop-opacity="1"/>
<stop offset="0.550781" stop-color="rgb(93.077087%, 92.974854%, 92.974854%)" stop-opacity="1"/>
<stop offset="0.554688" stop-color="rgb(92.904663%, 92.799377%, 92.799377%)" stop-opacity="1"/>
<stop offset="0.558594" stop-color="rgb(92.732239%, 92.625427%, 92.625427%)" stop-opacity="1"/>
<stop offset="0.5625" stop-color="rgb(92.559814%, 92.449951%, 92.449951%)" stop-opacity="1"/>
<stop offset="0.566406" stop-color="rgb(92.38739%, 92.274475%, 92.274475%)" stop-opacity="1"/>
<stop offset="0.570312" stop-color="rgb(92.214966%, 92.100525%, 92.100525%)" stop-opacity="1"/>
<stop offset="0.574219" stop-color="rgb(92.042542%, 91.925049%, 91.925049%)" stop-opacity="1"/>
<stop offset="0.578125" stop-color="rgb(91.870117%, 91.749573%, 91.749573%)" stop-opacity="1"/>
<stop offset="0.582031" stop-color="rgb(91.697693%, 91.575623%, 91.575623%)" stop-opacity="1"/>
<stop offset="0.585938" stop-color="rgb(91.525269%, 91.400146%, 91.400146%)" stop-opacity="1"/>
<stop offset="0.589844" stop-color="rgb(91.352844%, 91.22467%, 91.22467%)" stop-opacity="1"/>
<stop offset="0.59375" stop-color="rgb(91.18042%, 91.05072%, 91.05072%)" stop-opacity="1"/>
<stop offset="0.597656" stop-color="rgb(91.007996%, 90.875244%, 90.875244%)" stop-opacity="1"/>
<stop offset="0.601562" stop-color="rgb(90.835571%, 90.699768%, 90.699768%)" stop-opacity="1"/>
<stop offset="0.605469" stop-color="rgb(90.663147%, 90.525818%, 90.525818%)" stop-opacity="1"/>
<stop offset="0.609375" stop-color="rgb(90.490723%, 90.350342%, 90.350342%)" stop-opacity="1"/>
<stop offset="0.613281" stop-color="rgb(90.316772%, 90.174866%, 90.174866%)" stop-opacity="1"/>
<stop offset="0.617188" stop-color="rgb(90.144348%, 90.000916%, 90.000916%)" stop-opacity="1"/>
<stop offset="0.621094" stop-color="rgb(89.971924%, 89.825439%, 89.825439%)" stop-opacity="1"/>
<stop offset="0.625" stop-color="rgb(89.7995%, 89.649963%, 89.649963%)" stop-opacity="1"/>
<stop offset="0.628906" stop-color="rgb(89.541626%, 89.387512%, 89.387512%)" stop-opacity="1"/>
<stop offset="0.636719" stop-color="rgb(89.196777%, 89.038086%, 89.038086%)" stop-opacity="1"/>
<stop offset="0.644531" stop-color="rgb(88.851929%, 88.68866%, 88.68866%)" stop-opacity="1"/>
<stop offset="0.652344" stop-color="rgb(88.50708%, 88.337708%, 88.337708%)" stop-opacity="1"/>
<stop offset="0.660156" stop-color="rgb(88.162231%, 87.988281%, 87.988281%)" stop-opacity="1"/>
<stop offset="0.667969" stop-color="rgb(87.817383%, 87.638855%, 87.638855%)" stop-opacity="1"/>
<stop offset="0.675781" stop-color="rgb(87.472534%, 87.287903%, 87.287903%)" stop-opacity="1"/>
<stop offset="0.683594" stop-color="rgb(87.127686%, 86.938477%, 86.938477%)" stop-opacity="1"/>
<stop offset="0.691406" stop-color="rgb(86.782837%, 86.58905%, 86.58905%)" stop-opacity="1"/>
<stop offset="0.699219" stop-color="rgb(86.437988%, 86.238098%, 86.238098%)" stop-opacity="1"/>
<stop offset="0.707031" stop-color="rgb(86.09314%, 85.888672%, 85.888672%)" stop-opacity="1"/>
<stop offset="0.714844" stop-color="rgb(85.748291%, 85.53772%, 85.53772%)" stop-opacity="1"/>
<stop offset="0.722656" stop-color="rgb(85.403442%, 85.188293%, 85.188293%)" stop-opacity="1"/>
<stop offset="0.730469" stop-color="rgb(85.058594%, 84.838867%, 84.838867%)" stop-opacity="1"/>
<stop offset="0.738281" stop-color="rgb(84.713745%, 84.487915%, 84.487915%)" stop-opacity="1"/>
<stop offset="0.746094" stop-color="rgb(84.368896%, 84.138489%, 84.138489%)" stop-opacity="1"/>
<stop offset="0.753906" stop-color="rgb(84.109497%, 83.876038%, 83.876038%)" stop-opacity="1"/>
<stop offset="0.757812" stop-color="rgb(83.937073%, 83.700562%, 83.700562%)" stop-opacity="1"/>
<stop offset="0.761719" stop-color="rgb(83.764648%, 83.526611%, 83.526611%)" stop-opacity="1"/>
<stop offset="0.765625" stop-color="rgb(83.592224%, 83.351135%, 83.351135%)" stop-opacity="1"/>
<stop offset="0.769531" stop-color="rgb(83.4198%, 83.175659%, 83.175659%)" stop-opacity="1"/>
<stop offset="0.773438" stop-color="rgb(83.247375%, 83.001709%, 83.001709%)" stop-opacity="1"/>
<stop offset="0.777344" stop-color="rgb(83.074951%, 82.826233%, 82.826233%)" stop-opacity="1"/>
<stop offset="0.78125" stop-color="rgb(82.902527%, 82.650757%, 82.650757%)" stop-opacity="1"/>
<stop offset="0.785156" stop-color="rgb(82.730103%, 82.476807%, 82.476807%)" stop-opacity="1"/>
<stop offset="0.789062" stop-color="rgb(82.557678%, 82.301331%, 82.301331%)" stop-opacity="1"/>
<stop offset="0.792969" stop-color="rgb(82.385254%, 82.125854%, 82.125854%)" stop-opacity="1"/>
<stop offset="0.796875" stop-color="rgb(82.21283%, 81.951904%, 81.951904%)" stop-opacity="1"/>
<stop offset="0.800781" stop-color="rgb(82.040405%, 81.776428%, 81.776428%)" stop-opacity="1"/>
<stop offset="0.804688" stop-color="rgb(81.867981%, 81.600952%, 81.600952%)" stop-opacity="1"/>
<stop offset="0.808594" stop-color="rgb(81.695557%, 81.427002%, 81.427002%)" stop-opacity="1"/>
<stop offset="0.8125" stop-color="rgb(81.523132%, 81.251526%, 81.251526%)" stop-opacity="1"/>
<stop offset="0.816406" stop-color="rgb(81.265259%, 80.989075%, 80.989075%)" stop-opacity="1"/>
<stop offset="0.824219" stop-color="rgb(80.92041%, 80.639648%, 80.639648%)" stop-opacity="1"/>
<stop offset="0.832031" stop-color="rgb(80.575562%, 80.288696%, 80.288696%)" stop-opacity="1"/>
<stop offset="0.839844" stop-color="rgb(80.230713%, 79.93927%, 79.93927%)" stop-opacity="1"/>
<stop offset="0.847656" stop-color="rgb(79.885864%, 79.589844%, 79.589844%)" stop-opacity="1"/>
<stop offset="0.855469" stop-color="rgb(79.541016%, 79.238892%, 79.238892%)" stop-opacity="1"/>
<stop offset="0.863281" stop-color="rgb(79.196167%, 78.889465%, 78.889465%)" stop-opacity="1"/>
<stop offset="0.871094" stop-color="rgb(78.851318%, 78.540039%, 78.540039%)" stop-opacity="1"/>
<stop offset="0.878906" stop-color="rgb(78.591919%, 78.276062%, 78.276062%)" stop-opacity="1"/>
<stop offset="0.882812" stop-color="rgb(78.419495%, 78.102112%, 78.102112%)" stop-opacity="1"/>
<stop offset="0.886719" stop-color="rgb(78.24707%, 77.926636%, 77.926636%)" stop-opacity="1"/>
<stop offset="0.890625" stop-color="rgb(78.074646%, 77.75116%, 77.75116%)" stop-opacity="1"/>
<stop offset="0.894531" stop-color="rgb(77.902222%, 77.577209%, 77.577209%)" stop-opacity="1"/>
<stop offset="0.898438" stop-color="rgb(77.729797%, 77.401733%, 77.401733%)" stop-opacity="1"/>
<stop offset="0.902344" stop-color="rgb(77.557373%, 77.226257%, 77.226257%)" stop-opacity="1"/>
<stop offset="0.90625" stop-color="rgb(77.384949%, 77.052307%, 77.052307%)" stop-opacity="1"/>
<stop offset="0.910156" stop-color="rgb(77.125549%, 76.789856%, 76.789856%)" stop-opacity="1"/>
<stop offset="0.917969" stop-color="rgb(76.780701%, 76.438904%, 76.438904%)" stop-opacity="1"/>
<stop offset="0.925781" stop-color="rgb(76.435852%, 76.089478%, 76.089478%)" stop-opacity="1"/>
<stop offset="0.933594" stop-color="rgb(76.091003%, 75.740051%, 75.740051%)" stop-opacity="1"/>
<stop offset="0.941406" stop-color="rgb(75.831604%, 75.4776%, 75.4776%)" stop-opacity="1"/>
<stop offset="0.945312" stop-color="rgb(75.65918%, 75.302124%, 75.302124%)" stop-opacity="1"/>
<stop offset="0.949219" stop-color="rgb(75.486755%, 75.126648%, 75.126648%)" stop-opacity="1"/>
<stop offset="0.953125" stop-color="rgb(75.314331%, 74.952698%, 74.952698%)" stop-opacity="1"/>
<stop offset="0.957031" stop-color="rgb(75.056458%, 74.690247%, 74.690247%)" stop-opacity="1"/>
<stop offset="0.964844" stop-color="rgb(74.711609%, 74.339294%, 74.339294%)" stop-opacity="1"/>
<stop offset="0.972656" stop-color="rgb(74.452209%, 74.076843%, 74.076843%)" stop-opacity="1"/>
<stop offset="0.976562" stop-color="rgb(74.279785%, 73.902893%, 73.902893%)" stop-opacity="1"/>
<stop offset="0.980469" stop-color="rgb(74.021912%, 73.640442%, 73.640442%)" stop-opacity="1"/>
<stop offset="0.988281" stop-color="rgb(73.762512%, 73.377991%, 73.377991%)" stop-opacity="1"/>
<stop offset="0.992188" stop-color="rgb(73.504639%, 73.11554%, 73.11554%)" stop-opacity="1"/>
<stop offset="1" stop-color="rgb(73.332214%, 72.940063%, 72.940063%)" stop-opacity="1"/>
</radialGradient>
</defs>
<g clip-path="url(#clip-0)">
<path fill-rule="nonzero" fill="url(#radial-pattern-0)" d="M 0 0.0117188 L 0 2799.308594 L 2799.300781 2799.308594 L 2799.300781 0.0117188 Z M 0 0.0117188 "/>
</g>
<path fill-rule="nonzero" fill="rgb(0%, 0%, 0%)" fill-opacity="1" d="M 1566.839844 1483.140625 C 1525.25 1596.550781 1299.410156 1767.609375 1223.980469 1749.890625 C 1193.058594 1742.628906 1181.628906 1675.859375 1178.96875 1638.640625 C 1176.300781 1601.429688 1162.941406 1591.539062 1134.640625 1594.128906 C 1105.371094 1596.800781 1136.878906 1569.390625 1137.828125 1539.441406 C 1138.78125 1509.488281 1085.441406 1517.449219 1062.761719 1512.878906 C 1040.078125 1508.308594 1074.398438 1469.679688 1077.191406 1420.671875 C 1079.988281 1371.671875 982.578125 1396.261719 970.808594 1373.609375 C 949.585938 1332.761719 1058.351562 1247.089844 1062.550781 1200.109375 C 1065.488281 1167.210938 1007.359375 1126.148438 955.617188 1017.871094 C 879.421875 858.429688 973.351562 627.128906 973.351562 627.128906 C 973.351562 627.128906 837.695312 824.378906 915.453125 1021.441406 C 960.894531 1136.609375 1000.910156 1143.941406 1020.46875 1191.308594 C 1038.109375 1234.03125 895.210938 1354.03125 919.429688 1394.679688 C 948.585938 1443.621094 1038.28125 1418.230469 1041.871094 1448.191406 C 1045.449219 1478.140625 988.378906 1518.480469 1025.839844 1548 C 1051.039062 1567.859375 1076.320312 1553.011719 1075.269531 1565.308594 C 1074.121094 1578.929688 1045.058594 1605.648438 1076.929688 1630.449219 C 1095.238281 1644.699219 1110.28125 1619.25 1132.339844 1638.910156 C 1181.28125 1682.550781 1139.351562 1771.769531 1213.859375 1783.589844 C 1270.058594 1792.5 1369.300781 1743.921875 1437.230469 1677.488281 C 1476.558594 1639.019531 1545.628906 1588.96875 1566.839844 1483.140625 "/>
<path fill-rule="nonzero" fill="rgb(0%, 0%, 0%)" fill-opacity="1" d="M 1007.75 1114.699219 C 1007.75 1114.699219 1034.640625 955.929688 1229.089844 1006.089844 C 1124.910156 958.089844 1051.589844 950.21875 973.351562 1099.078125 C 978.449219 1139.910156 1007.75 1114.699219 1007.75 1114.699219 "/>
<path fill-rule="nonzero" fill="rgb(0%, 0%, 0%)" fill-opacity="1" d="M 1215.128906 1076.621094 C 1215.128906 1076.621094 1178.628906 1158.128906 1110.890625 1181.960938 C 1043.160156 1205.789062 1043.160156 1205.789062 1043.160156 1205.789062 L 1040.011719 1163.601562 C 1040.011719 1163.601562 1139.441406 1167.671875 1215.128906 1076.621094 "/>
<path fill-rule="nonzero" fill="rgb(0%, 0%, 0%)" fill-opacity="1" d="M 1022.390625 1164.921875 C 1022.390625 1164.921875 1004.941406 1213.488281 947.710938 1226.238281 C 974.949219 1233.910156 1042.53125 1197.359375 1042.53125 1197.359375 L 1022.390625 1164.921875 "/>
<path fill-rule="nonzero" fill="rgb(0%, 0%, 0%)" fill-opacity="1" d="M 1491.511719 1640.738281 C 1491.511719 1640.738281 1554.550781 1897.390625 1399.660156 2028.011719 C 1547.019531 1972.941406 1562.148438 1853.558594 1491.511719 1640.738281 "/>
<path fill-rule="nonzero" fill="rgb(0%, 0%, 0%)" fill-opacity="1" d="M 1479.78125 1103.921875 C 1479.78125 1103.921875 1563.140625 967.289062 1617.230469 1032.761719 C 1671.308594 1098.230469 1617.46875 1299.621094 1566.839844 1300.691406 C 1545.929688 1301.128906 1529.941406 1291.789062 1529.941406 1291.789062 C 1529.941406 1291.789062 1541.390625 1311.921875 1566.839844 1315.628906 C 1647.359375 1327.371094 1672.679688 1088.621094 1652.761719 1032.761719 C 1638.429688 992.589844 1602.210938 959.429688 1542.25 995.261719 C 1531.738281 1001.539062 1479.78125 1032.761719 1479.78125 1103.921875 "/>
<path fill-rule="nonzero" fill="rgb(0%, 0%, 0%)" fill-opacity="1" d="M 1752.988281 1399.660156 C 1752.988281 1399.660156 1752.058594 1660.511719 1851.601562 1664.691406 C 1987.308594 1670.378906 2133.398438 1436.960938 2221.640625 1473.96875 C 2170.410156 1419.878906 2102.089844 1470.820312 2013.851562 1532.171875 C 1925.609375 1593.519531 1810.929688 1752.320312 1752.988281 1399.660156 "/>
<path fill-rule="nonzero" fill="rgb(0%, 0%, 0%)" fill-opacity="1" d="M 1506.460938 1122.390625 C 1506.460938 1122.390625 1584.378906 1022.078125 1600.390625 1108.550781 C 1606.679688 1086.878906 1600.609375 1041.839844 1572 1051.101562 C 1556.910156 1055.988281 1518.871094 1069.761719 1506.460938 1122.390625 "/>
<path fill-rule="nonzero" fill="rgb(0%, 0%, 0%)" fill-opacity="1" d="M 1359.148438 355.289062 C 1147.96875 347.269531 550.738281 662.710938 522.273438 1032.761719 C 519.800781 1064.871094 519.613281 1093.921875 521.25 1120.328125 C 548.058594 958.839844 641.152344 799.179688 778.460938 716.789062 C 630.863281 856.191406 481.710938 1140.890625 573.910156 1288.960938 C 645.296875 1387.609375 762.488281 1375.921875 762.488281 1375.921875 C 762.488281 1375.921875 613.359375 1311.71875 630.441406 1144.960938 C 658.90625 773.25 1069.699219 477.761719 1331.359375 481.519531 C 1659.230469 486.230469 1506.460938 910.359375 1506.460938 910.359375 C 1682.710938 665.558594 1659.230469 366.671875 1359.148438 355.289062 "/>
<path fill-rule="nonzero" fill="rgb(0%, 0%, 0%)" fill-opacity="1" d="M 1602.648438 827.808594 C 1602.648438 827.808594 1933.5 93.410156 1040.011719 423.601562 C 1296.53125 150.339844 2056.550781 210.109375 1602.648438 827.808594 "/>
<path fill-rule="nonzero" fill="rgb(0%, 0%, 0%)" fill-opacity="1" d="M 1971.859375 396.558594 C 1975.53125 583.898438 1992.5 714.25 1862.980469 776.570312 C 1961.191406 662.710938 1999.621094 407.949219 1853.929688 309.171875 C 1885.28125 347.019531 1905.441406 395.230469 1914.21875 443.53125 C 1931.300781 580.160156 1873.089844 764.648438 1748.300781 827.808594 C 1867.851562 708.25 1961.191406 490.5 1837.359375 323.96875 C 1823.761719 305.679688 1798.699219 294.328125 1766.128906 277.011719 C 1705.71875 258.21875 1654.191406 254.890625 1602.648438 268.421875 C 1790.398438 268.421875 1824.550781 493.339844 1760.511719 627.128906 C 1714.929688 722.339844 1687.878906 811.398438 1602.648438 865.339844 C 1479.78125 943.089844 1479.78125 1032.761719 1479.78125 1032.761719 C 1504.351562 977.25 1581.578125 961.601562 1753.390625 931.710938 C 1925.199219 901.820312 2082.171875 708.25 1971.859375 396.558594 "/>
<path fill-rule="nonzero" fill="rgb(0%, 0%, 0%)" fill-opacity="1" d="M 1218.46875 2440.050781 C 1255.710938 2383.511719 1262.988281 2319.128906 1199.738281 2259.609375 C 1102.960938 2168.519531 821.15625 2128.671875 872.394531 1986.339844 C 923.632812 1844.019531 1040.988281 1696.96875 995.117188 1578.351562 C 949.25 1459.738281 829.496094 1332.238281 806.925781 1249.089844 C 752.839844 1049.859375 891.351562 714.25 891.351562 714.25 C 891.351562 714.25 610.515625 1049.859375 727.222656 1316.050781 C 780.886719 1438.449219 982.976562 1494.101562 890.679688 1664.789062 C 807.933594 1817.820312 696.539062 1895.480469 742.035156 2047.328125 C 774.1875 1863.941406 891.398438 1841.171875 972.871094 1613.449219 C 964.332031 1639.070312 926.507812 1765.738281 906.550781 1792.78125 C 825.226562 1902.988281 754.71875 2047.730469 811.054688 2173.679688 C 922.410156 2305.449219 1103.539062 2347.25 1040.011719 2450.328125 C 966.328125 2569.878906 855.316406 2561.339844 855.316406 2561.339844 C 855.316406 2561.339844 1036.78125 2599.769531 1139.96875 2521.488281 C 1142.589844 2519.5 1145.160156 2517.421875 1147.730469 2515.339844 C 1160.070312 2499.96875 1168.46875 2481.289062 1171.28125 2458.859375 C 1196.898438 2305.148438 1017.570312 2270.988281 923.632812 2185.601562 C 1036.371094 2249.019531 1212.898438 2306.699219 1218.46875 2440.050781 "/>
<path fill-rule="nonzero" fill="rgb(0%, 0%, 0%)" fill-opacity="1" d="M 1033.21875 2009.109375 C 967.394531 1959.300781 1021.839844 1882.441406 1033.578125 1769.300781 C 1045.320312 1870.699219 1009.03125 1963.570312 1043.191406 1989.191406 C 1124.179688 2049.929688 1253.109375 2036.078125 1316.289062 2103.449219 C 1299.921875 2058.03125 1264.300781 2022.300781 1229.089844 2001.121094 C 1155.078125 1956.609375 1041.800781 1983.789062 1053.859375 1886.710938 C 1068.441406 1769.300781 1042.53125 1640.738281 1042.53125 1640.738281 C 1030.71875 1697.308594 1022.78125 1772.070312 947.710938 1876.28125 C 896.859375 1946.878906 904.316406 2016.539062 926.507812 2042.558594 C 1032.890625 2167.320312 1228.378906 2131.519531 1273.050781 2305.148438 C 1303.339844 2268.320312 1319.269531 2210.328125 1323.929688 2177.769531 C 1316.449219 2064.621094 1111.480469 2068.339844 1033.21875 2009.109375 "/>
<path fill-rule="nonzero" fill="rgb(0%, 0%, 0%)" fill-opacity="1" d="M 883.5625 1576.96875 C 869.820312 1502.859375 737.894531 1399.660156 737.894531 1399.660156 C 737.894531 1399.660156 831.929688 1579.289062 740.03125 1664.789062 C 671.8125 1728.261719 618.292969 1795.058594 629.691406 1887.03125 C 654.296875 1813.921875 705.304688 1750.460938 769.917969 1707.378906 C 709.074219 1783.441406 628.152344 1895.25 655.421875 1970.171875 C 666.269531 1992.859375 680.496094 2016.890625 698.832031 2042.558594 C 649.769531 1799.839844 906.550781 1700.980469 883.5625 1576.96875 "/>
<path fill-rule="nonzero" fill="rgb(0%, 0%, 0%)" fill-opacity="1" d="M 1490.089844 589.511719 C 1464.769531 527.21875 1359.011719 484.859375 1241.738281 520.070312 C 1281.558594 520.601562 1321.640625 531.101562 1359.148438 554.539062 C 1410.390625 588.699219 1436 639.941406 1444.539062 699.710938 C 1415.160156 567.480469 1265.730469 530.121094 1148.421875 565.730469 C 1101.21875 583.011719 1091.28125 601.140625 1077.710938 633.53125 C 1405.441406 462.03125 1479.78125 938.351562 1479.78125 938.351562 C 1511.089844 867.191406 1544.171875 722.601562 1490.089844 589.511719 "/>
<path fill-rule="nonzero" fill="rgb(0%, 0%, 0%)" fill-opacity="1" d="M 861.71875 865.75 C 861.71875 865.75 777.949219 1159.550781 891.351562 1316.050781 C 917.226562 1239.839844 944.644531 1171.53125 910.652344 1103.210938 C 876.664062 1034.890625 870.175781 966.371094 861.71875 865.75 "/>
<path fill-rule="nonzero" fill="rgb(0%, 0%, 0%)" fill-opacity="1" d="M 564.96875 1316.050781 C 564.96875 1316.050781 667.445312 1414.898438 669.578125 1498.160156 C 670.617188 1538.671875 649.949219 1588.640625 631.140625 1639.421875 C 683.761719 1586.488281 735.34375 1532.171875 701.601562 1451.199219 C 778.460938 1553.671875 650.363281 1639.070312 607.667969 1715.921875 C 607.335938 1716.589844 607.007812 1717.339844 606.675781 1718.03125 C 601.046875 1744.449219 599.429688 1769.839844 605.53125 1792.828125 C 620.476562 1705.25 741.019531 1651.878906 756.535156 1570.75 C 772.054688 1489.621094 731.492188 1411.46875 564.96875 1316.050781 "/>
<path fill-rule="nonzero" fill="rgb(0%, 0%, 0%)" fill-opacity="1" d="M 1120.039062 1826.941406 C 1148.769531 1884.398438 1207.710938 1863.328125 1251.128906 1880.601562 C 1234.320312 1857.578125 1210.089844 1843.359375 1186.21875 1833.390625 C 1134.988281 1811.988281 1068.441406 1664.789062 1068.441406 1664.789062 C 1068.441406 1664.789062 1071.71875 1850.421875 1101.21875 1903.789062 C 1130.71875 1957.171875 1262.011719 1936.878906 1290.828125 2028.011719 C 1297.78125 1996.441406 1298.300781 1953.960938 1269.941406 1923.578125 C 1235.109375 1896.878906 1183.449219 1894.828125 1145.660156 1869.640625 C 1128.578125 1861.101562 1120.039062 1844.019531 1120.039062 1826.941406 "/>
<path fill-rule="nonzero" fill="rgb(0%, 0%, 0%)" fill-opacity="1" d="M 1811.75 981.519531 C 1920.171875 988.75 2026.660156 940.25 2032.511719 813.550781 C 2037.910156 763.238281 2034.828125 709.960938 2029.5 665.558594 C 1986.808594 985.789062 1634.550781 973.871094 1634.550781 973.871094 C 1634.550781 973.871094 1856.578125 1066.921875 1941.96875 1048.769531 C 2006.929688 1034.96875 2037.28125 936.328125 2048.089844 889.871094 C 2011.859375 974.828125 1904.179688 1034.339844 1811.75 981.519531 "/>
<path fill-rule="nonzero" fill="rgb(0%, 0%, 0%)" fill-opacity="1" d="M 1668.710938 1000.96875 C 1668.710938 1000.96875 1865.121094 1124.789062 1956.921875 1071.421875 C 1860.851562 1199.511719 1709.269531 1135.46875 1668.710938 1000.96875 "/>
<path fill-rule="nonzero" fill="rgb(0%, 0%, 0%)" fill-opacity="1" d="M 1752.988281 1182.910156 C 1850.738281 1242.691406 1839.910156 1304.898438 1837.929688 1377.910156 C 1847.5 1343.96875 1858.03125 1311.308594 1843.769531 1265.460938 C 1813.878906 1169.390625 1681.519531 1086.128906 1681.519531 1086.128906 C 1681.519531 1086.128906 1709.269531 1156.578125 1752.988281 1246.25 C 1796.699219 1335.910156 1754.96875 1449.28125 1843.769531 1513.109375 C 1831.75 1485.328125 1827.289062 1463.289062 1818.859375 1435.539062 C 1808.710938 1328.769531 1821 1256.210938 1752.988281 1182.910156 "/>
<path fill-rule="nonzero" fill="rgb(0%, 0%, 0%)" fill-opacity="1" d="M 1781.859375 1148.011719 C 1781.859375 1148.011719 1857.179688 1181.859375 1865.21875 1271.148438 C 1883.011719 1216.359375 1874.371094 1160.070312 1781.859375 1148.011719 "/>
</svg>
