<svg xmlns="http://www.w3.org/2000/svg" xmlns:xlink="http://www.w3.org/1999/xlink" version="1.1" x="0px" y="0px" viewBox="0 0 100 125" enable-background="new 0 0 100 100" xml:space="preserve"><g><path d="M30.4150391,51.6582031l0.0048828-0.0039063l2.6552734-2.1464844   c0.1728516-0.1396484,0.2304688-0.3857422,0.1259766-0.5922852c-0.1201172-0.2368164-0.4091797-0.3320313-0.6464844-0.2119141   l-2.5898438,1.3115234l-2.5146484-1.2895508c-0.1855469-0.0952148-0.4199219-0.0541992-0.5605469,0.1123047   c-0.1640625,0.1938477-0.1396484,0.4838867,0.0537109,0.6479492l2.5556641,2.1625977   C29.7568359,51.8671875,30.1416016,51.8789063,30.4150391,51.6582031z"/><path d="M30.609375,56.046875c0.0009766-0.0019531,0.0009766-0.0039063,0.0019531-0.0058594   C30.6113281,56.0429688,30.609375,56.0449219,30.609375,56.046875z"/><path d="M24.4375,55.5683594c-0.0566406,0.0214844-0.0908203,0.0810547-0.078125,0.1425781   c0.0136719,0.0664063,0.0800781,0.109375,0.1474609,0.0957031c0,0,0.3759766-0.0761719,0.9433594-0.1738281   c0.5673828-0.0966797,1.3271484-0.2167969,2.078125-0.2802734c0.3740234-0.0302734,0.75-0.0478516,1.0703125-0.0263672   c0.1542969,0.0097656,0.3095703,0.0380859,0.3642578,0.0703125c0.0048828,0.0039063,0.0107422,0.0058594,0.015625,0.0087891   V55.40625c0.0058594,0.0019531-0.0439453-0.0195313-0.0224609-0.0097656l0.0039063,0.0019531l0.0068359,0.0029297   l0.0126953,0.0078125l0.0263672,0.0146484c0.03125,0.0175781,0.0820313,0.0419922,0.0839844,0.0517578   c0.0292969,0.0273438,0.0585938,0.0537109,0.0859375,0.0791016c0.1171875,0.125,0.1757813,0.265625,0.2041016,0.3652344   c0.0078125,0.0273438,0.0126953,0.0507813,0.0166016,0.0703125c0.0019531,0.0175781,0.0039063,0.0361328,0.0068359,0.0537109   c0,0.0039063,0,0.0039063-0.0009766,0.0029297c0.0009766,0.0039063,0.0029297,0.0078125,0.0039063,0.0126953   c0.0039063,0.0224609,0.0107422,0.0429688,0.0166016,0.0634766c0.0058594,0.0185547,0.0117188,0.0371094,0.0185547,0.0546875   c0.0078125,0.0175781,0.0175781,0.0351563,0.0273438,0.0527344c0.0087891,0.0175781,0.0185547,0.0351563,0.0302734,0.0517578   c0.0097656,0.015625,0.0224609,0.0302734,0.0341797,0.0449219c0.0126953,0.015625,0.0253906,0.0302734,0.0400391,0.0458984   c0.0136719,0.0136719,0.0292969,0.0253906,0.0449219,0.0380859c0.0146484,0.0126953,0.0292969,0.0244141,0.0449219,0.0361328   c0.0166016,0.0107422,0.0341797,0.0195313,0.0517578,0.0292969S29.75,56.4960938,29.7685547,56.5039063   c0.0166016,0.0068359,0.0341797,0.0117188,0.0527344,0.0175781c0.0214844,0.0078125,0.0429688,0.0136719,0.0644531,0.0175781   c0.0068359,0.0019531,0.0126953,0.0039063,0.0185547,0.0058594c0.0126953,0.0019531,0.0244141,0,0.0371094,0.0019531   c0.0214844,0.0019531,0.0429688,0.0039063,0.0644531,0.0039063s0.0429688-0.0019531,0.0654297-0.0039063   c0.0117188-0.0019531,0.0234375,0,0.0361328-0.0019531c0.0058594-0.0019531,0.0117188-0.0039063,0.0185547-0.0058594   c0.0214844-0.0039063,0.0429688-0.0097656,0.0644531-0.0175781c0.0185547-0.0058594,0.0361328-0.0107422,0.0527344-0.0175781   c0.0185547-0.0078125,0.0361328-0.0175781,0.0537109-0.0273438s0.0351563-0.0185547,0.0517578-0.0292969   c0.015625-0.0117188,0.03125-0.0234375,0.0458984-0.0361328s0.0302734-0.0244141,0.0439453-0.0380859   c0.0146484-0.015625,0.0273438-0.0302734,0.0400391-0.0458984c0.0117188-0.0146484,0.0244141-0.0292969,0.0351563-0.0449219   c0.0107422-0.0166016,0.0205078-0.0341797,0.0302734-0.0517578c0.0087891-0.0175781,0.0185547-0.0351563,0.0263672-0.0527344   c0.0068359-0.0175781,0.0126953-0.0361328,0.0185547-0.0546875c0.0058594-0.0205078,0.0126953-0.0410156,0.0166016-0.0634766   c0.0019531-0.0048828,0.0029297-0.0087891,0.0039063-0.0126953c0,0.0009766-0.0009766,0.0009766-0.0009766-0.0029297   c0.0029297-0.0175781,0.0058594-0.0361328,0.0068359-0.0537109c0.0039063-0.0195313,0.0087891-0.0429688,0.0166016-0.0703125   c0.0283203-0.0996094,0.0869141-0.2402344,0.2041016-0.3652344c0.0273438-0.0253906,0.0566406-0.0517578,0.0859375-0.0791016   c0.0019531-0.0097656,0.0527344-0.0341797,0.0839844-0.0517578l0.0263672-0.0146484l0.0136719-0.0078125l0.0058594-0.0029297   l0.0039063-0.0019531c0.0214844-0.0097656-0.0273438,0.0117188-0.0224609,0.0097656v-0.0009766   c0.0058594-0.0029297,0.0107422-0.0048828,0.015625-0.0087891c0.0546875-0.0322266,0.2099609-0.0605469,0.3652344-0.0703125   c0.3193359-0.0214844,0.6953125-0.0039063,1.0683594,0.0263672c0.7519531,0.0634766,1.5117188,0.1835938,2.0791016,0.2802734   c0.5673828,0.0976563,0.9433594,0.1738281,0.9433594,0.1738281c0.0595703,0.0126953,0.1201172-0.0195313,0.1425781-0.078125   c0.0234375-0.0644531-0.0087891-0.1357422-0.0732422-0.1601563c0,0-0.3623047-0.1376953-0.9130859-0.3261719   c-0.5517578-0.1875-1.2890625-0.4296875-2.0556641-0.6210938c-0.3847656-0.0947266-0.7744141-0.1796875-1.1757813-0.2177734   c-0.2050781-0.0146484-0.4023438-0.0322266-0.6669922,0.0283203l-0.1015625,0.0273438l-0.0830078,0.03125   c-0.0410156,0.0175781-0.0644531,0.0205078-0.1289063,0.0546875c-0.0537109,0.0263672-0.1132813,0.0556641-0.1582031,0.0839844   c-0.0449219,0.0292969-0.0878906,0.0566406-0.1308594,0.0839844c-0.0556641,0.0410156-0.1064453,0.0839844-0.1542969,0.1269531   c-0.0478516-0.0429688-0.0986328-0.0859375-0.1542969-0.1269531c-0.0429688-0.0273438-0.0869141-0.0546875-0.1308594-0.0839844   c-0.0449219-0.0283203-0.1044922-0.0576172-0.1582031-0.0839844c-0.0634766-0.0341797-0.0878906-0.0371094-0.1289063-0.0546875   l-0.0830078-0.03125l-0.1015625-0.0273438c-0.2646484-0.0605469-0.4619141-0.0429688-0.6669922-0.0283203   c-0.4013672,0.0380859-0.7900391,0.1230469-1.1757813,0.2177734c-0.7666016,0.1914063-1.5039063,0.4335938-2.0556641,0.6210938   C24.7998047,55.4306641,24.4375,55.5683594,24.4375,55.5683594z"/><path d="M29.4023438,56.046875c0-0.0019531-0.0009766-0.0039063-0.0019531-0.0058594   C29.4013672,56.0429688,29.4013672,56.0449219,29.4023438,56.046875z"/><path d="M32.2294922,57.7910156c0,0-0.0869141-0.0097656-0.2236328-0.0117188c-0.0683594,0-0.1513672,0-0.2412109,0.0039063   s-0.1943359-0.0019531-0.3017578,0.0019531c-0.1064453,0.0039063-0.2207031,0.0097656-0.3417969,0.0058594   c-0.1201172,0.0019531-0.2421875,0.0136719-0.3710938,0.0097656c-0.1279297-0.0019531-0.2578125,0.0097656-0.390625,0.0058594   c-0.0664063-0.0019531-0.1328125,0-0.2001953,0.0039063c-0.0664063,0.0019531-0.1337891-0.0058594-0.2011719-0.0019531   c-0.1347656,0.0019531-0.2705078-0.0019531-0.4042969-0.0039063c-0.1337891,0.0058594-0.265625-0.0097656-0.3964844-0.0058594   c-0.1289063-0.0078125-0.2568359-0.0058594-0.3779297-0.0117188c-0.1230469-0.0019531-0.2392578-0.0058594-0.3466797-0.0078125   c-0.1113281-0.0019531-0.2128906-0.0019531-0.3027344-0.0039063s-0.1728516,0.0019531-0.2392578,0   s-0.1210938,0.0039063-0.1552734,0.0039063C27.7011719,57.78125,27.6777344,57.78125,27.6777344,57.78125   c-0.0429688-0.0019531-0.0859375,0.0078125-0.125,0.0332031c-0.1054688,0.0644531-0.1376953,0.203125-0.0722656,0.3066406   l0.0185547,0.0292969c0,0,0.0097656,0.0175781,0.0410156,0.046875c0.03125,0.03125,0.0722656,0.078125,0.1289063,0.125   c0.1132813,0.0996094,0.28125,0.2324219,0.5019531,0.3535156c0.1103516,0.0625,0.2333984,0.1210938,0.3662109,0.1757813   c0.0664063,0.03125,0.1357422,0.0527344,0.2080078,0.078125c0.0712891,0.0234375,0.1445313,0.0488281,0.2207031,0.0683594   c0.1533203,0.0371094,0.3115234,0.0800781,0.4765625,0.0976563c0.0830078,0.0097656,0.1660156,0.0195313,0.2490234,0.03125   c0.0839844,0.0058594,0.1699219,0.0039063,0.2539063,0.0078125c0.1699219,0.0058594,0.3398438-0.0058594,0.5058594-0.0253906   c0.1669922-0.0117188,0.328125-0.0566406,0.4833984-0.0917969c0.1552734-0.0332031,0.2998047-0.0957031,0.4355469-0.1484375   c0.0673828-0.0292969,0.1328125-0.0546875,0.1953125-0.0839844C31.625,58.75,31.6835938,58.7167969,31.7392578,58.6855469   c0.1083984-0.0683594,0.2080078-0.1269531,0.2890625-0.1914063c0.0820313-0.0683594,0.1484375-0.1308594,0.203125-0.1816406   c0.1083984-0.1035156,0.1630859-0.171875,0.1630859-0.171875c0.0234375-0.03125,0.0400391-0.0683594,0.0449219-0.109375   c0.0136719-0.1171875-0.0712891-0.2246094-0.1894531-0.2382813L32.2294922,57.7910156z"/><path d="M19.5527344,93.0058594c0,0.7070313,5.1484375,1.0703125,12.2871094,1.0703125h49.2988281V5.9243164H18.8613281v72.9956055   c0,7.1386719,0.3798828,10.9003906,0.7333984,10.9003906s0.6396484-0.7480469,0.6708984-7.8808594l1.1699219-74.2192383   l6.3740234,0.012207c0.0869141,0.4707031,0.2207031,0.9741211,0.40625,1.4858398c0,0,0.0283203,0.0756836,0.0820313,0.2226563   c0.0546875,0.1469727,0.1328125,0.3652344,0.2431641,0.6469727c0.2138672,0.565918,0.5458984,1.3891602,1.0009766,2.4228516   c0.4570313,1.0327148,1.0517578,2.2705078,1.8095703,3.652832c0.7617188,1.3803711,1.6835938,2.9086914,2.8300781,4.4863281   c0.7783203,1.0722656,1.6601563,2.1699219,2.6523438,3.2548828c-0.0146484,0.0024414-0.0292969,0.0043945-0.0449219,0.0073242   c-0.2646484,0.0424805-0.5322266,0.1064453-0.7978516,0.1801758c-0.1337891,0.0361328-0.2646484,0.0810547-0.3974609,0.121582   c-0.1298828,0.0473633-0.2617188,0.0913086-0.3896484,0.1425781c-1.0322266,0.3989258-1.9501953,0.9697266-2.5996094,1.4389648   c-0.3251953,0.2353516-0.5849609,0.4443359-0.7646484,0.5957031c-0.0888672,0.0776367-0.1582031,0.1381836-0.2070313,0.1801758   c-0.0478516,0.0439453-0.0732422,0.0673828-0.0732422,0.0673828c-0.1279297,0.1162109-0.1523438,0.3120117-0.0498047,0.4560547   c0.1113281,0.1552734,0.3271484,0.1918945,0.4824219,0.0810547l0.0097656-0.0068359c0,0,0.0244141-0.0175781,0.0703125-0.0498047   c0.0478516-0.0327148,0.1191406-0.0805664,0.2080078-0.1416016c0.1835938-0.1201172,0.4501953-0.2866211,0.7783203-0.4697266   c0.65625-0.3652344,1.5712891-0.7871094,2.5107422-1.0253906c0.1171875-0.03125,0.2353516-0.0546875,0.3515625-0.0825195   c0.1171875-0.0205078,0.2333984-0.0458984,0.3486328-0.0629883c0.2314453-0.0341797,0.4580078-0.0605469,0.6748047-0.0688477   c0.1083984-0.0058594,0.2148438-0.0097656,0.3183594-0.0058594c0.1035156-0.0004883,0.203125,0.0029297,0.2998047,0.012207   c0.0976563,0.0048828,0.1914063,0.0131836,0.2802734,0.027832c0.0898438,0.0117188,0.1757813,0.0209961,0.2568359,0.0405273   c0.0566406,0.0097656,0.1083984,0.0224609,0.1611328,0.034668c0.0166016,0.015625,0.0322266,0.0322266,0.0488281,0.0478516   c1.6132813,1.5678711,3.5195313,3.0332031,5.6611328,4.2739258c0.2617188,0.1640625,0.5410156,0.3022461,0.8173828,0.4472656   c0.0351563,0.0180664,0.0703125,0.0366211,0.1054688,0.0546875c-0.1542969,0.0981445-0.3183594,0.2011719-0.4941406,0.3076172   c-0.5761719,0.3491211-1.2587891,0.7416992-2.0136719,1.1064453c-0.3759766,0.1855469-0.7705078,0.359375-1.1757813,0.5268555   c-0.40625,0.1606445-0.8212891,0.3188477-1.2441406,0.4448242c-0.4199219,0.1328125-0.8466797,0.237793-1.2685547,0.3203125   c-0.2109375,0.0375977-0.4208984,0.0766602-0.6279297,0.0976563c-0.2080078,0.0317383-0.4130859,0.0410156-0.6152344,0.0551758   c-0.2021484,0.0112305-0.3994141,0.0083008-0.5927734,0.0073242c-0.0957031-0.0058594-0.1914063-0.0117188-0.2851563-0.0170898   c-0.046875-0.0029297-0.09375-0.0053711-0.140625-0.0083008c-0.0458984-0.0058594-0.0908203-0.012207-0.1367188-0.0185547   c-0.1806641-0.0229492-0.3583984-0.0444336-0.5244141-0.0859375c-0.0839844-0.0180664-0.1660156-0.0361328-0.2470703-0.0532227   c-0.0791016-0.0239258-0.15625-0.0473633-0.2324219-0.0708008c-0.0751953-0.0239258-0.1513672-0.0429688-0.2226563-0.0688477   c-0.0703125-0.0288086-0.1386719-0.0566406-0.2060547-0.0834961s-0.1328125-0.0527344-0.1962891-0.0786133   c-0.0615234-0.03125-0.1201172-0.0615234-0.1777344-0.0908203c-0.2392578-0.1118164-0.4130859-0.2333984-0.5664063-0.3276367   c-0.0742188-0.0410156-0.1484375-0.105957-0.2099609-0.152832c-0.0615234-0.0483398-0.1152344-0.0898438-0.1572266-0.1230469   c-0.0859375-0.0673828-0.1318359-0.1030273-0.1318359-0.1030273c-0.1748047-0.1357422-0.4296875-0.1176758-0.5810547,0.0493164   c-0.1601563,0.1748047-0.1474609,0.4462891,0.0273438,0.605957c0,0,0.0429688,0.0390625,0.1240234,0.1123047   c0.0400391,0.0371094,0.0898438,0.0820313,0.1474609,0.1352539c0.0273438,0.0234375,0.0537109,0.0488281,0.0830078,0.0756836   l-0.5644531,1.3740234c-0.0517578,0.1264648-0.0292969,0.2773438,0.0683594,0.3852539   c0.1367188,0.1489258,0.3671875,0.1591797,0.5166016,0.0234375l1.1162109-1.0195313   c0.0009766-0.0004883,0.0009766-0.0014648,0.0019531-0.0019531c0.0292969,0.0146484,0.0576172,0.0288086,0.0878906,0.043457   c0.0771484,0.0380859,0.1572266,0.0771484,0.2382813,0.1171875c0.0830078,0.0375977,0.1699219,0.0683594,0.2578125,0.1035156   c0.0888672,0.0341797,0.1787109,0.0693359,0.2714844,0.1049805c0.09375,0.027832,0.1894531,0.0566406,0.2871094,0.0859375   c0.078125,0.0253906,0.1582031,0.0454102,0.2382813,0.0654297l0.1132813,1.3476563   c0.0136719,0.1494141,0.0996094,0.2919922,0.2402344,0.3686523c0.2255859,0.121582,0.5068359,0.0380859,0.6279297-0.1865234   l0.6582031-1.2138672c0.0146484-0.027832,0.0273438-0.0576172,0.0390625-0.0869141   c0.0126953,0.0004883,0.0253906,0.0014648,0.0380859,0.0019531c0.2324219,0.0019531,0.4707031,0.0078125,0.7080078-0.0087891   c0.1826172-0.0048828,0.3642578-0.0214844,0.546875-0.0395508l0.6601563,1.1015625   c0.09375,0.1547852,0.2675781,0.2558594,0.4609375,0.2475586c0.2822266-0.0117188,0.5009766-0.2504883,0.4892578-0.5327148   l-0.0458984-1.0703125c0.015625-0.0039063,0.0322266-0.0068359,0.0478516-0.0107422   c0.4326172-0.0942383,0.8554688-0.2158203,1.2695313-0.3427734l0.8271484,1.0317383   c0.0986328,0.1235352,0.2597656,0.1923828,0.4277344,0.1669922c0.2509766-0.0371094,0.4238281-0.2719727,0.3857422-0.5229492   l-0.1796875-1.1943359c0.3955078-0.1557617,0.7724609-0.3183594,1.1279297-0.480957l1.0273438,0.847168   c0.1630859,0.1328125,0.3945313,0.168457,0.5957031,0.0708008c0.2753906-0.1333008,0.390625-0.4658203,0.2568359-0.7416992   l-0.4306641-0.8881836c0.4785156-0.2509766,0.8740234-0.4755859,1.1650391-0.6430664   c0.0400391-0.0239258,0.078125-0.0458984,0.1142578-0.0673828c0.1162109,0.0556641,0.2304688,0.1103516,0.3466797,0.1660156   c1.0830078,0.5141602,2.1796875,1.0209961,3.28125,1.5332031c-0.0126953,0.0703125-0.0244141,0.1420898-0.0332031,0.2148438   c0,0-0.0791016,0.6743164-0.2548828,1.8515625s-0.4511719,2.8583984-0.8681641,4.8579102s-0.9736328,4.3178711-1.7050781,6.7578125   c-0.7294922,2.4399414-1.6416016,4.9990234-2.734375,7.46875c-1.0908203,2.46875-2.3710938,4.84375-3.7773438,6.9160156   c-1.4003906,2.0761719-2.9326172,3.8339844-4.3828125,5.1699219c-0.3574219,0.3398438-0.7207031,0.640625-1.0605469,0.9335938   c-0.3525391,0.2753906-0.6796875,0.5488281-1.0058594,0.7773438c-0.1611328,0.1152344-0.3144531,0.234375-0.4677734,0.3378906   c-0.1542969,0.1035156-0.3037109,0.203125-0.4462891,0.2988281C33.5273438,68.6796875,33.25,68.8320313,33.0097656,68.984375   c-0.2402344,0.1542969-0.4697266,0.265625-0.6611328,0.3769531c-0.1923828,0.1074219-0.3574219,0.1972656-0.4951172,0.2617188   c-0.2724609,0.1367188-0.4179688,0.2089844-0.4179688,0.2089844c-0.9951172,0.4785156-1.7558594,1.0488281-1.6386719,1.390625   c0.1103516,0.328125,1.1328125,0.3066406,2.2197266-0.1816406c0,0,0.1582031-0.0722656,0.453125-0.2089844   c0.1484375-0.0664063,0.3271484-0.1582031,0.5361328-0.2675781c0.2080078-0.1132813,0.4550781-0.2265625,0.7158203-0.3828125   c0.2607422-0.1542969,0.5615234-0.3105469,0.8671875-0.5136719c0.1552734-0.0976563,0.3173828-0.1992188,0.484375-0.3046875   c0.1669922-0.1074219,0.3330078-0.2285156,0.5087891-0.3476563c0.3535156-0.2363281,0.7089844-0.515625,1.0917969-0.7988281   c0.3691406-0.3007813,0.7636719-0.6113281,1.1533203-0.9628906c0.5107422-0.4472656,1.0322266-0.9414063,1.5546875-1.4765625   c0.0126953,0.1933594,0.0263672,0.3945313,0.0429688,0.6035156l0.1875,2.0585938   c0.1474609,1.4316406,0.3378906,3.03125,0.5429688,4.6445313c0.0449219,0.3535156,0.0908203,0.7089844,0.1357422,1.0625   c0.0234375,0.1777344,0.046875,0.3535156,0.0703125,0.53125l0.0166016,0.1308594l0.0078125,0.0546875l0.0117188,0.0644531   c0.0078125,0.0429688,0.0175781,0.0839844,0.0273438,0.1230469c0.0185547,0.0800781,0.0380859,0.1367188,0.0585938,0.2011719   c0.0195313,0.0644531,0.0419922,0.125,0.0644531,0.1796875c0.3701172,0.90625,0.9580078,1.5507813,1.5742188,2.0585938   c0.6171875,0.515625,1.2744141,0.8613281,1.8964844,1.1484375c0.3144531,0.1347656,0.6181641,0.2714844,0.9169922,0.3632813   c0.2988281,0.1015625,0.5849609,0.2070313,0.8623047,0.2714844c0.2724609,0.0703125,0.5546875,0.15625,0.8447266,0.2148438   c0.2910156,0.0585938,0.5898438,0.1171875,0.8964844,0.1777344c0.5761719,0.1015625,1.1816406,0.2089844,1.8125,0.3203125   c1.2548828,0.2304688,2.6054688,0.5,4.0175781,0.8222656c2.8232422,0.6386719,5.8964844,1.4785156,8.9355469,2.5488281   c0.7568359,0.2636719,1.5117188,0.5449219,2.2597656,0.8378906c0.0009766,0.0019531,0.0009766,0.0019531,0.0019531,0.0019531   l0.6054688,0.2441406c2.0410156,0.8261719,4.0234375,1.7519531,5.8564453,2.7636719   c0.2275391,0.125,0.4521484,0.25,0.6748047,0.3789063c0.0009766,0,0.0019531,0.0019531,0.0039063,0.0039063   c1.2578125,0.7226563,2.5996094,1.6035156,4.1503906,2.6835938c0.6503906,0.4765625,1.2617188,0.9550781,1.828125,1.4296875   c-19.9404297,1.0546875-30.5839844,0.6601563-45.890625,0.5917969   C24.6611328,92.2617188,19.5527344,92.2988281,19.5527344,93.0058594z M74.6708984,87.6679688   c-0.2099609-0.1640625-0.4296875-0.3203125-0.6533203-0.4785156c-0.2246094-0.1582031-0.4521484-0.3183594-0.6826172-0.4824219   c-0.2373047-0.15625-0.4765625-0.3164063-0.71875-0.4785156c-0.546875-0.8027344-1.1074219-1.7421875-1.6259766-2.7753906   c-0.6113281-1.2128906-1.1689453-2.5527344-1.6445313-3.9179688c-0.9580078-2.7324219-1.5810547-5.5683594-1.9345703-7.703125   c-0.1787109-1.0683594-0.2949219-1.9628906-0.3671875-2.5859375c-0.0263672-0.2324219-0.046875-0.4277344-0.0634766-0.5800781   c0.2373047-0.1660156,0.4677734-0.3320313,0.6904297-0.5039063c0.8212891-0.6308594,1.5400391-1.2949219,2.1650391-1.9394531   c1.2441406-1.2988281,2.1054688-2.5214844,2.6591797-3.3964844c0.2597656-0.3984375,0.4453125-0.7304688,0.5869141-0.9648438   c0.0371094,0.1367188,0.0742188,0.2753906,0.1123047,0.4101563c0.4179688,1.5117188,0.8515625,2.8222656,1.2587891,3.8925781   c0.4160156,1.0703125,0.7988281,1.9003906,1.0869141,2.4589844c0.1347656,0.2832031,0.265625,0.4921875,0.3417969,0.6367188   c0.0800781,0.1425781,0.1210938,0.2167969,0.1210938,0.2167969c0.5771484,1.0078125,1.3105469,1.8476563,1.9716797,2.3359375   c0.3359375,0.2402344,0.6210938,0.4101563,0.8554688,0.4824219c0.0126953,0.0039063,0.0224609,0.0058594,0.0351563,0.0097656   c-0.03125,6.3457031-0.0644531,12.6933594-0.0986328,19.0429688c-0.0673828-0.0761719-0.1386719-0.1542969-0.2119141-0.2363281   C77.6992188,90.1933594,76.3701172,88.9433594,74.6708984,87.6679688z M69.4082031,7.972168   c0,0,0.0126953,0.0605469,0.0371094,0.1738281c0.0273438,0.1113281,0.078125,0.2607422,0.1416016,0.4570313   c0.0302734,0.0996094,0.0800781,0.1938477,0.1259766,0.3046875c0.0498047,0.1069336,0.0966797,0.2304688,0.1621094,0.347168   c0.1337891,0.2265625,0.2714844,0.5029297,0.4648438,0.7485352c0.09375,0.1274414,0.1894531,0.2631836,0.2929688,0.3959961   c0.1113281,0.1230469,0.2255859,0.2504883,0.3427734,0.3813477c0.0585938,0.0649414,0.1191406,0.1308594,0.1796875,0.1977539   c0.0615234,0.0649414,0.1289063,0.1210938,0.1943359,0.1831055c0.1328125,0.1206055,0.2685547,0.2441406,0.40625,0.3696289   c0.1357422,0.1323242,0.2880859,0.230957,0.4355469,0.3476563c0.1494141,0.112793,0.3017578,0.2270508,0.4541016,0.3417969   c0.3115234,0.2128906,0.6357422,0.4072266,0.9570313,0.6113281c0.6542969,0.3652344,1.3144531,0.7192383,1.9492188,0.9804688   c0.1582031,0.0693359,0.3134766,0.1376953,0.4648438,0.2045898c0.0761719,0.0332031,0.1513672,0.0678711,0.2265625,0.0981445   c0.0742188,0.0273438,0.1484375,0.0546875,0.2226563,0.0820313c0.2929688,0.1079102,0.5703125,0.2099609,0.8261719,0.3037109   c0.5097656,0.199707,0.9433594,0.3144531,1.2441406,0.409668c0.3017578,0.0917969,0.4746094,0.1445313,0.4746094,0.1445313   c0.0146484,0.0043945,0.03125,0.0053711,0.0458984,0.0083008c-0.0009766,1.8818359-0.0029297,3.7636719-0.0058594,5.6469727   c-0.4208984-0.4487305-1.0175781-0.9946289-1.7626953-1.5673828c-1.7246094-1.34375-4.203125-2.8583984-6.6660156-4.3496094   c-0.3076172-0.1865234-0.6152344-0.3730469-0.9208984-0.559082c-0.1533203-0.0932617-0.3056641-0.1860352-0.4580078-0.2788086   c-0.15625-0.0922852-0.2822266-0.1884766-0.4238281-0.28125c-0.2744141-0.1889648-0.5556641-0.3603516-0.8007813-0.5756836   c-0.25-0.2084961-0.5097656-0.394043-0.7294922-0.621582c-0.9228516-0.8525391-1.6318359-1.7900391-2.1464844-2.6416016   c-0.4482422-0.7436523-0.7587891-1.4169922-0.9619141-1.9355469l5.2226563,0.0351563   C69.4042969,7.9472656,69.4052734,7.9599609,69.4082031,7.972168z M54.6289063,8.0908203   c0,0,0.0429688,0.1289063,0.1328125,0.3647461c0.0878906,0.2373047,0.2275391,0.5805664,0.4160156,1.0112305   c0.3867188,0.8564453,0.9960938,2.0605469,1.9433594,3.3725586c0.9453125,1.309082,2.2451172,2.71875,3.8925781,3.9116211   c0.8212891,0.5976563,1.7236328,1.1396484,2.6806641,1.6010742c0.1201172,0.0576172,0.2382813,0.1191406,0.359375,0.1733398   l0.3671875,0.1582031c0.234375,0.1010742,0.4697266,0.2016602,0.7050781,0.3032227   c0.4414063,0.1938477,0.8916016,0.3740234,1.3300781,0.5795898c1.7617188,0.8085938,3.4501953,1.777832,4.9550781,2.7973633   c1.5068359,1.0175781,2.828125,2.0854492,3.8896484,3.0644531c1.0644531,0.9785156,1.8613281,1.8666992,2.3847656,2.5004883   c0.125,0.1606445,0.2363281,0.3041992,0.3339844,0.4291992c0.0488281,0.0625,0.0927734,0.1201172,0.1347656,0.1728516   c0.0371094,0.0541992,0.0712891,0.1030273,0.1015625,0.1464844c0.1210938,0.175293,0.1855469,0.2685547,0.1855469,0.2685547   c0.0537109,0.0795898,0.1181641,0.1547852,0.1689453,0.2255859c0.0517578,0.0708008,0.1054688,0.137207,0.1611328,0.1982422   c0.0849609,0.0952148,0.1806641,0.1787109,0.2626953,0.2475586c-0.0029297,1.1650391-0.0068359,2.3305664-0.0097656,3.4960938   c-0.0019531-0.0024414-0.0039063-0.0048828-0.0058594-0.0078125c-0.1552734-0.2548828-0.4248047-0.597168-0.7597656-1.0405273   c-0.0839844-0.1108398-0.1728516-0.2275391-0.265625-0.3500977c-0.0917969-0.1230469-0.2011719-0.2407227-0.3076172-0.3696289   c-0.2177734-0.2553711-0.4521484-0.5317383-0.703125-0.8271484c-0.265625-0.2822266-0.5478516-0.5820313-0.8457031-0.8989258   c-0.0742188-0.0791016-0.1503906-0.1586914-0.2265625-0.2397461c-0.0800781-0.0776367-0.1611328-0.15625-0.2431641-0.2353516   c-0.1640625-0.1586914-0.3320313-0.3212891-0.5029297-0.4873047c-1.3798828-1.3183594-3.1005859-2.7421875-5.0478516-4.1245117   c-1.9453125-1.3847656-4.1132813-2.7314453-6.3476563-3.9584961c-0.5566406-0.3115234-1.125-0.5986328-1.6855469-0.8984375   c-0.5634766-0.2924805-1.1328125-0.5678711-1.6943359-0.8500977c-1.0800781-0.5244141-2.0644531-1.1308594-2.9492188-1.8291016   c-1.7734375-1.3857422-3.1162109-3.0351563-4.0869141-4.5493164c-0.9736328-1.519043-1.5957031-2.8994141-1.9853516-3.875   c-0.1132813-0.2866211-0.2070313-0.5371094-0.2841797-0.7504883c1.1591797,0.0063477,2.3183594,0.0131836,3.4775391,0.0195313   C54.578125,7.9243164,54.5996094,8.0078125,54.6289063,8.0908203z M41.4863281,7.7744141   c0.0009766,0.0004883,0.0009766,0.0014648,0.0009766,0.0019531c0,0,0.0498047,0.203125,0.1601563,0.5786133   c0.109375,0.375,0.2792969,0.9228516,0.5371094,1.6044922c0.5126953,1.359375,1.3779297,3.2749023,2.8496094,5.3041992   c0.7333984,1.0126953,1.6171875,2.0483398,2.6552734,3.0375977c1.0371094,0.9887695,2.2265625,1.9316406,3.5449219,2.7607422   c0.3339844,0.1992188,0.6669922,0.4086914,1.0097656,0.6030273c0.34375,0.1855469,0.7021484,0.3833008,1.0419922,0.5610352   c0.6699219,0.3442383,1.3466797,0.6967773,2.0253906,1.0566406c1.3574219,0.7197266,2.7255859,1.4702148,4.078125,2.2446289   c2.7041016,1.5473633,5.3496094,3.190918,7.7285156,4.8554688c2.3808594,1.6611328,4.4921875,3.347168,6.1728516,4.9033203   c0.8388672,0.7797852,1.5664063,1.527832,2.1845703,2.2084961c0.3037109,0.34375,0.5888672,0.6655273,0.8339844,0.9741211   c0.2568359,0.3022461,0.46875,0.5922852,0.6660156,0.8520508c0.3857422,0.5229492,0.6699219,0.9438477,0.8476563,1.2368164   c0.0917969,0.1455078,0.1621094,0.2573242,0.2089844,0.3325195s0.0673828,0.1157227,0.0673828,0.1157227   c0.1464844,0.2729492,0.3212891,0.5175781,0.4648438,0.7451172c0.1425781,0.2255859,0.3007813,0.4194336,0.4316406,0.5830078   c-0.0107422,2.9873047-0.0214844,5.9746094-0.0332031,8.9628906c-0.0146484-0.0410156-0.0292969-0.0830078-0.0449219-0.1289063   c-0.0761719-0.2226563-0.1708984-0.4970703-0.2822266-0.8208008c-0.1142578-0.3217773-0.2714844-0.6826172-0.4335938-1.0917969   c-0.0869141-0.2021484-0.1621094-0.4228516-0.2695313-0.6416016c-0.1035156-0.2202148-0.2109375-0.4506836-0.3232422-0.6914063   c-0.0566406-0.1201172-0.1142578-0.2431641-0.1728516-0.3681641c-0.0292969-0.0629883-0.0585938-0.1259766-0.0888672-0.1894531   c-0.0332031-0.0625-0.0664063-0.1254883-0.1005859-0.1884766c-0.1347656-0.253418-0.2744141-0.515625-0.4179688-0.7871094   c-0.0732422-0.1347656-0.1445313-0.2744141-0.2226563-0.4121094c-0.0810547-0.1362305-0.1640625-0.2744141-0.2470703-0.4140625   c-0.1679688-0.2802734-0.3408203-0.5688477-0.5175781-0.8652344c-0.1914063-0.2871094-0.3876953-0.581543-0.5878906-0.8833008   c-0.1025391-0.1494141-0.1982422-0.3066406-0.3085938-0.4550781c-0.1103516-0.1494141-0.2207031-0.300293-0.3330078-0.453125   c-1.765625-2.4643555-4.2363281-5.0400391-7.1757813-7.4335938C64.4980469,33.0737305,61.0878906,30.875,57.5683594,28.90625   c-1.7587891-0.9868164-3.5449219-1.9208984-5.3095703-2.815918c-0.8837891-0.4428711-1.7597656-0.8823242-2.6259766-1.3168945   c-0.4316406-0.215332-0.8613281-0.4296875-1.2880859-0.6425781c-0.2119141-0.1064453-0.4228516-0.2128906-0.6337891-0.3188477   c-0.1982422-0.1074219-0.3955078-0.2148438-0.5927734-0.3217773c-1.5732422-0.8564453-2.9326172-1.9458008-4.0839844-3.1074219   c-1.15625-1.159668-2.0859375-2.4145508-2.8417969-3.6337891c-1.5136719-2.4462891-2.3359375-4.7387695-2.8261719-6.347168   c-0.2421875-0.8076172-0.4082031-1.449707-0.5087891-1.8896484c-0.0527344-0.2197266-0.0908203-0.3881836-0.1142578-0.5024414   c-0.0244141-0.1142578-0.0371094-0.1728516-0.0371094-0.1728516c-0.0058594-0.0273438-0.0117188-0.0532227-0.0175781-0.0800781   C38.2871094,7.762207,39.8867188,7.7675781,41.4863281,7.7744141z M51.671875,40.296875   c0.4814453-2.0424805,0.8105469-3.7617188,1.0234375-4.9702148c0.0976563-0.5527344,0.1708984-0.9970703,0.2216797-1.3178711   c1.4736328,0.699707,2.9355469,1.4213867,4.3535156,2.1967773c1.0322266,0.5668945,2.0351563,1.1704102,2.9970703,1.8129883   c-0.0380859,0.0424805-0.0810547,0.0913086-0.1298828,0.1459961c-0.0478516,0.0546875-0.1015625,0.1152344-0.1601563,0.1811523   c-0.0605469,0.0644531-0.1298828,0.1303711-0.2011719,0.2021484c-0.0722656,0.0712891-0.1484375,0.1474609-0.2294922,0.2275391   c-0.0849609,0.074707-0.1748047,0.152832-0.2685547,0.2348633c-0.375,0.3222656-0.8330078,0.6689453-1.3642578,0.9599609   c-0.5273438,0.2944336-1.1171875,0.5415039-1.7216797,0.7119141c-1.2148438,0.3427734-2.4716797,0.3632813-3.3847656,0.2563477   c-0.4580078-0.0507813-0.8320313-0.1235352-1.0878906-0.1826172c-0.0556641-0.012207-0.1054688-0.0244141-0.1494141-0.0351563   C51.6044922,40.5791016,51.6396484,40.4355469,51.671875,40.296875z M48.7363281,50.0439453   c0.1230469,0.0087891,0.3808594,0.0258789,0.7529297,0.0429688c0.5302734,0.0214844,1.2871094,0.0366211,2.1962891-0.0024414   c1.8125-0.0756836,4.2578125-0.3911133,6.5966797-1.2910156c1.1660156-0.4477539,2.2910156-1.0507813,3.2607422-1.7563477   c0.96875-0.7055664,1.7822266-1.5043945,2.3779297-2.2666016c0.15625-0.1845703,0.2802734-0.3813477,0.4121094-0.5581055   c0.1269531-0.1796875,0.2519531-0.3476563,0.3476563-0.5185547c0.1005859-0.168457,0.1943359-0.3256836,0.28125-0.4711914   c0.0429688-0.0732422,0.0839844-0.1430664,0.1230469-0.2099609c0.0341797-0.0698242,0.0673828-0.1357422,0.0986328-0.1982422   c0.0673828-0.1396484,0.1269531-0.2602539,0.1787109-0.3647461c0.0966797,0.1118164,0.1962891,0.2226563,0.2900391,0.3369141   c0.1904297,0.2158203,0.3564453,0.4506836,0.5351563,0.6738281l0.2636719,0.3374023l0.2460938,0.3496094   c0.1611328,0.234375,0.3300781,0.4619141,0.484375,0.6987305c0.1513672,0.2392578,0.3017578,0.4775391,0.4511719,0.7148438   c0.15625,0.2338867,0.2861328,0.4833984,0.4257813,0.7250977c0.0703125,0.128418,0.1445313,0.2548828,0.2167969,0.3813477   c-0.2304688,0.1015625-0.4746094,0.2939453-0.6748047,0.5507813c0,0-0.0566406,0.0737305-0.1650391,0.2128906   c-0.1025391,0.1425781-0.2773438,0.3339844-0.4912109,0.5825195c-0.1074219,0.1235352-0.2265625,0.2607422-0.3564453,0.409668   c-0.1308594,0.1484375-0.2646484,0.3139648-0.4277344,0.4736328c-0.1591797,0.1630859-0.328125,0.3364258-0.5068359,0.5195313   c-0.1777344,0.1826172-0.3603516,0.3779297-0.5722656,0.5610352c-0.2070313,0.1875-0.421875,0.3833008-0.6445313,0.5849609   c-0.1083984,0.1040039-0.2285156,0.1982422-0.3496094,0.2944336c-0.1210938,0.0966797-0.2431641,0.1958008-0.3681641,0.2944336   c-0.1240234,0.0996094-0.2490234,0.2001953-0.3759766,0.3017578c-0.1298828,0.0986328-0.2685547,0.1894531-0.4033203,0.2851563   c-0.1367188,0.0957031-0.2744141,0.1914063-0.4130859,0.2890625c-0.0693359,0.0488281-0.1386719,0.0976563-0.2089844,0.1464844   c-0.0732422,0.0449219-0.1464844,0.0878906-0.2207031,0.1328125c-1.1601563,0.7402344-2.4873047,1.3710938-3.8691406,1.7792969   C56.8466797,54.4980469,55.4179688,54.6875,54.0878906,54.6875c-1.3330078-0.0117188-2.5644531-0.2021484-3.5927734-0.453125   c-1.0283203-0.2539063-1.8535156-0.5693359-2.4169922-0.8066406c-0.2597656-0.109375-0.4599609-0.2011719-0.6054688-0.2705078   C47.9248047,52.1210938,48.3476563,51.0791016,48.7363281,50.0439453z M42.5908203,61.9257813   c0.0771484-0.1074219,0.1513672-0.21875,0.2275391-0.3261719c0.0527344,0.0292969,0.1210938,0.0683594,0.2070313,0.1152344   C43.234375,61.8339844,43.5439453,62,43.9423828,62.203125c0.7958984,0.4042969,1.9521484,0.9453125,3.3994141,1.4550781   c1.4462891,0.5039063,3.1855469,0.9941406,5.1152344,1.2265625c1.9257813,0.234375,4.0380859,0.2226563,6.1025391-0.1816406   c2.0615234-0.4101563,4.0429688-1.2128906,5.7167969-2.234375c1.6767578-1.0195313,3.0761719-2.2089844,4.1289063-3.3359375   c0.5576172-0.5390625,0.9863281-1.0976563,1.3945313-1.5722656c0.1005859-0.1191406,0.1972656-0.234375,0.2910156-0.3476563   c0.0917969-0.1132813,0.1699219-0.2285156,0.25-0.3359375c0.1591797-0.2167969,0.3046875-0.4160156,0.4355469-0.5966797   c0.1318359-0.1806641,0.2490234-0.3408203,0.3505859-0.4814453c0.1035156-0.1386719,0.1894531-0.2587891,0.25-0.3613281   c0.0605469-0.0957031,0.1074219-0.1699219,0.140625-0.2207031c0.1738281,0.6728516,0.3310547,1.3349609,0.4755859,1.9804688   c0.0966797,0.4550781,0.1923828,0.9003906,0.2851563,1.3359375c0.1015625,0.4511719,0.2011719,0.8925781,0.2988281,1.3222656   c0.0195313,0.0800781,0.0390625,0.1582031,0.0585938,0.2382813c-0.0341797,0.0410156-0.0673828,0.0839844-0.1005859,0.1269531   c-0.1347656,0.1640625-0.265625,0.3535156-0.3857422,0.5585938c0,0-0.0185547,0.03125-0.0527344,0.0898438   c-0.0351563,0.0566406-0.0820313,0.1464844-0.1542969,0.2558594c-0.1455078,0.21875-0.3408203,0.5507813-0.6210938,0.9511719   c-0.5478516,0.8085938-1.3945313,1.9257813-2.5830078,3.0878906c-0.5976563,0.5761719-1.2783203,1.1660156-2.0478516,1.7167969   c-0.2158203,0.1542969-0.4423828,0.3046875-0.671875,0.453125c-0.5253906,0.3105469-1.1640625,0.703125-1.5410156,0.8769531   c-0.1132813,0.0566406-0.2246094,0.1152344-0.3398438,0.1699219c-1.8525391,0.8886719-3.9892578,1.4472656-6.1572266,1.6542969   c-2.1708984,0.203125-4.3642578,0.0761719-6.3847656-0.25c-2.0234375-0.3203125-3.8779297-0.8203125-5.4375-1.3320313   c-1.5595703-0.5097656-2.8261719-1.03125-3.7011719-1.4121094c-0.875-0.3847656-1.8535156-0.7988281-1.8535156-0.7988281   c-0.0332031-0.1855469-0.0654297-0.3632813-0.0947266-0.5292969c-0.0644531-0.3496094-0.1376953-0.6542969-0.2148438-0.9121094   C41.0751953,63.9257813,41.8496094,62.9648438,42.5908203,61.9257813z M56.3388672,79.2792969   c-0.0195313-0.0058594-0.0400391-0.0117188-0.0605469-0.015625c-0.0224609-0.0332031-0.0458984-0.0664063-0.0683594-0.1035156   c-0.5361328-0.7695313-1.0449219-1.9121094-1.3457031-3.1015625c-0.3066406-1.1875-0.4257813-2.4121094-0.4521484-3.3222656   c-0.0068359-0.21875-0.0087891-0.4199219-0.0078125-0.5976563c1.2070313,0.0253906,2.4414063-0.0253906,3.6748047-0.1757813   c0.015625,0.0800781,0.0341797,0.1738281,0.0556641,0.2792969c0.0791016,0.3828125,0.2011719,0.9257813,0.3701172,1.5722656   c0.3388672,1.2910156,0.8837891,2.9960938,1.6533203,4.6367188c0.3828125,0.8203125,0.8203125,1.625,1.2929688,2.3515625   c0.0097656,0.0136719,0.0185547,0.0273438,0.0283203,0.0429688C59.5400391,80.1621094,57.7568359,79.6386719,56.3388672,79.2792969   z M46.9765625,77.5351563c-0.2792969-0.0625-0.5595703-0.1269531-0.8408203-0.1894531   c-0.2763672-0.0742188-0.546875-0.1621094-0.8222656-0.2421875c-0.5283203-0.1972656-1.0605469-0.4042969-1.5214844-0.6933594   c-0.4677734-0.2773438-0.890625-0.609375-1.2109375-0.9941406c-0.1679688-0.1875-0.2919922-0.3984375-0.3925781-0.5976563   l-0.0351563-0.0742188l-0.0273438-0.0703125c-0.0097656-0.0253906-0.0146484-0.0449219-0.0205078-0.0585938   c-0.0068359-0.0195313-0.0068359-0.015625-0.0126953-0.0527344c-0.0263672-0.1464844-0.0517578-0.2910156-0.0771484-0.4375   c-0.2060547-1.1582031-0.4042969-2.2753906-0.5888672-3.3164063c-0.1035156-0.5742188-0.203125-1.125-0.296875-1.6464844   c0.1279297,0.0527344,0.2666016,0.1074219,0.4160156,0.1679688c0.9121094,0.3632813,2.2167969,0.8476563,3.8183594,1.3203125   c0.0019531,0.0136719,0.0029297,0.0273438,0.0039063,0.0429688c0.0185547,0.1425781,0.0410156,0.3164063,0.0664063,0.5136719   c0.0322266,0.1953125,0.0693359,0.4160156,0.109375,0.6582031c0.1787109,0.9570313,0.5205078,2.2128906,1.0361328,3.4121094   c0.0644531,0.1503906,0.1240234,0.3007813,0.1943359,0.4492188c0.0712891,0.1445313,0.1435547,0.2910156,0.2148438,0.4335938   c0.0732422,0.1445313,0.140625,0.2890625,0.2158203,0.4277344c0.0791016,0.1367188,0.1572266,0.2714844,0.234375,0.4042969   s0.1533203,0.2636719,0.2275391,0.390625c0.0634766,0.1035156,0.1318359,0.2011719,0.1972656,0.2988281   c-0.0117188-0.0019531-0.0244141-0.0039063-0.0371094-0.0058594   C47.5449219,77.6289063,47.2617188,77.5820313,46.9765625,77.5351563z"/></g><text x="0" y="115" fill="#000000" font-size="5px" font-weight="bold" font-family="'Helvetica Neue', Helvetica, Arial-Unicode, Arial, Sans-serif">Created by Ariyanto Deni</text><text x="0" y="120" fill="#000000" font-size="5px" font-weight="bold" font-family="'Helvetica Neue', Helvetica, Arial-Unicode, Arial, Sans-serif">from the Noun Project</text></svg>