<svg class="svg-icon" style="width: 1em; height: 1em;vertical-align: middle;fill: currentColor;overflow: hidden;" viewBox="0 0 1024 1024" version="1.1" xmlns="http://www.w3.org/2000/svg"><path d="M211.52977 203.610523c22.040314-12.880703 30.722862-35.270864 50.346057-48.469609 5.374911 5.724757 16.283753 9.064199 6.774296 20.513712 22.835419 3.275833 40.23232-8.746156 58.869584-17.110662 14.439109-6.488058 18.128397-4.579806 18.669068 10.654409 0.127217 3.943721-0.508867 5.311302 3.498463 5.406714 3.180421 0.095413 6.360841 0.031804 9.541262 0.031805 101.200981 0 202.401963 0 303.602944 0.031804 7.79203 0 15.870298 2.385315 15.106997-11.163276-0.508867-8.809765 5.915582-9.763891 14.21648-6.360841 19.750412 8.141877 37.687983 22.421965 61.890984 18.478243-5.629344-7.092338-2.162686-12.594465 4.261763-17.174271 7.664813-5.470323 9.700283 2.957791 13.484983 5.979191 13.6122 10.908842 20.545517 28.43296 36.574837 37.083703 3.339442-2.925987 0.954126-5.661149-0.540672-8.141876-4.484393-7.41038 2.321707-8.61894 6.106408-11.544927 5.374911-4.166351 8.269093-1.303972 11.19508 3.371246 17.428705 27.669659 27.447029 56.03901 27.637854 90.514768 0.445259 78.906234 0 157.844271 0.477063 236.750505 0.477063 76.83896 0.445259 153.646116 0 230.485076-0.38165 62.717893-39.373606 111.282915-98.656645 122.637016-15.42504 2.957791-31.581576 3.085008-47.388266 3.116812-128.234556 0.222629-256.437308 0.445259-384.671863-0.159021-22.580986-0.095413-45.511818 1.081343-67.679349-6.138211-49.900798-16.220145-84.217536-60.268969-84.312949-113.06395-0.349846-156.826537 0.954126-313.653073 0-470.47961-0.190825-31.517968 5.533932-59.664689 22.962636-85.394292 3.562071-5.247694 3.848309-15.965711 14.629935-12.78529 12.658074 3.752896 7.060534 13.071528 3.40305 22.930832z" fill="#123450" /><path d="M586.533155 823.28366c-23.089853-9.159611-40.61397-23.662329-48.533217-48.278784-6.297233-19.559586-12.976116-23.185266-37.242725-22.867223-16.124732 0.222629-23.853154 10.304563-27.160791 24.043979-5.533932 22.962636-20.322887 37.274529-40.677579 47.102028-47.801721 7.887443-96.144113 6.8061-143.755008 1.876448-42.967481-4.452589-76.934373-27.82868-97.448085-67.679349-2.258099-4.38898-3.180421-8.809765-3.180421-13.675808 0.031804-113.66823 0.031804-227.368264 0.031805-341.036494 0-2.162686 0.318042-4.198155 1.494797-6.042799a216.246334 216.246334 0 0 1 21.213405-49.264714c14.184676-24.266609 43.985216-34.921017 70.414511-25.02991 34.571171 12.944312 68.569867 27.478833 103.045625 40.709383 7.823835 2.989595 8.364506 7.982856 8.39631 14.725347 0.063608 20.386496 6.265428 39.469019 13.325963 58.265304 1.59021 4.198155 2.162686 9.350436 9.636674 6.074603 5.788365-2.544336 10.908842-3.593875 8.873373-11.79936-1.367581-5.565736-2.385315-11.544927-1.940056-17.206075 1.685623-22.167531 13.548591-30.373016 33.012765-20.736342 34.825605 17.237879 68.887909 21.213405 104.66764 2.830574 8.364506-4.293568 18.478243-14.407305 28.751001-5.215889 11.036059 9.922912 13.198745 23.884958 9.668479 38.101438-1.622014 6.519862-2.099078 10.527192 5.756561 13.262353 7.060534 2.480728 9.795695 2.035469 12.308227-5.724757 5.851974-18.128397 12.594465-36.034165 12.467249-55.339317-0.063608-9.732087 3.275833-15.043389 12.689878-18.637264 32.026835-12.181011 63.672019-25.475168 95.603441-37.942417 32.376681-12.658074 65.262229 0.826909 79.287884 32.440289 5.756561 12.976116 10.686213 26.333882 15.965711 39.500823 1.685623 5.724757 0.858714 11.576731 0.858714 17.365096 0.063608 102.791192-1.685623 205.614188 0.922322 308.341771 0.98593 38.387676-16.283753 62.0182-43.985216 81.927633-21.563251 15.488648-46.306923 23.503308-72.958848 23.916763-34.952822 0.572476-69.937448 0.095413-104.890269 0.190825-9.159611 0.031804-17.778551-2.766966-26.62012-4.198155z" fill="#FBDBCB" /><path d="M186.945119 351.245644c0-10.431779-0.063608-17.842159 0-25.252539 0.063608-7.951051-2.576141-17.61953 1.017735-23.439699 5.533932-9.00059 13.103333 3.339442 20.736342 2.258098 4.229959-0.60428 8.650744 1.240364 9.60487-4.61161 0.858714-5.311302 1.176756-10.145542-6.010995-12.499052-11.831164-3.911917-22.23114-9.636674-24.743672-23.948567-1.749231-10.050129 2.607945-18.255614 5.724757-30.468429 9.445849 21.913097 25.220735 33.648849 42.108768 44.080629 4.61161 2.862378 10.399975 7.346771 14.502718-1.144951 3.0214-6.297233 1.113147-9.636674-5.21589-13.6122-20.036649-12.530857-21.722272-28.178526-5.82017-52.890394 6.774296 19.941237 18.351026 35.62071 32.249464 49.614561 3.053204 3.085008 6.329037 8.936982 11.576731 3.848308 3.593875-3.466658 6.488058-7.569401 3.62568-13.99385-13.771221-31.0091-13.421375-31.772401 13.99385-55.498338-4.802435 21.245209 2.035469 38.960152 9.445849 56.325247 2.162686 5.056869 2.353511 15.456844 13.516787 9.795696 9.00059-4.548001 6.647079-10.5908 3.148617-17.174271-5.788365-10.877038-9.954716-22.072119-9.127807-34.793801 0.667888-10.018325 4.229959-15.234214 15.488648-15.20241 119.233966 0.254434 238.436128 0.254434 357.670093 0.031804 10.845234-0.031804 14.979781 3.816505 15.20241 14.82076 0.286238 13.771221-3.752896 26.333882-9.60487 38.006025-4.357176 8.650744 0.286238 11.576731 5.756561 14.788956 7.219555 4.261764 7.919247-3.116812 9.573066-6.615275 8.650744-18.160201 16.697208-36.574836 11.131472-57.533808 24.711868 13.039724 29.705128 27.796875 15.552257 50.6641-4.548001 7.378576-2.512532 12.244619 2.258098 16.538186 5.311302 4.802435 8.491723-1.303972 11.576731-4.325372 13.99385-13.675808 26.906358-28.146722 31.263534-48.437804 17.905768 21.340622 16.124732 37.528962-6.678883 52.763176-6.297233 4.198155-5.692953 8.110072-3.466659 12.944312 2.862378 6.170016 7.378576 6.329037 13.00792 2.766966 17.01525-10.686213 32.726527-22.676398 42.744852-41.44088 12.817095 23.312483 8.428114 37.847004-13.866633 48.087959-6.488058 2.989595-13.548591 5.120477-10.495388 14.280088 3.689288 11.036059 12.880703 4.675218 17.078858 2.512532 13.675808-6.965121 15.075193-1.049539 14.439109 10.558996-0.60428 10.558996-0.127217 21.181601-0.127216 34.348542-12.371836-15.870298-23.503308-29.80054-40.264124-38.292263-21.499643-10.908842-42.617635-10.558996-64.244495-2.035469-31.422555 12.371836-62.84511 24.80728-94.07684 37.687983-6.8061 2.79877-10.940647 3.848309-15.488648-3.816505-8.650744-14.629934-24.42563-17.428705-39.437214-20.704537-5.82017-1.272168-10.527192 0.508867-10.463584 8.046464 0.031804 5.788365 0.731497 9.541262 8.078268 10.908842 29.673324 5.661149 34.889213 13.262354 32.21766 47.579091-13.771221-14.884368-28.496568-25.602385-46.656769-30.054974-5.629344-1.367581-12.244619-8.905178-17.460509 1.43119-5.025064 9.98652 3.053204 12.499053 10.050129 16.092927-31.517968 21.245209-61.700158 20.100258-91.914153 0.60428 0.922322-3.721092 4.99326-3.148616 7.346771-4.99326 4.643414-3.625679 3.434854-8.61894 1.717427-13.00792-2.067273-5.279498-6.233624-4.039134-10.654409-2.607945-15.615865 5.088673-31.263534 9.922912-43.221915 22.23114-2.258099 2.353511-4.325372 7.155946-8.873373 4.229959-3.562071-2.289903-2.925987-6.551666-2.671553-10.20915 1.335777-18.446439 10.749821-29.164456 29.577911-31.040904 8.873373-0.890518 12.689878-3.434854 11.513122-12.340032-1.526602-11.290493-8.905178-3.371246-13.38957-3.816505-14.280088-1.399385-26.874554 3.975526-34.539367 15.456844-6.074603 9.096003-11.513122 8.046464-19.559587 4.770631-30.309408-12.371836-61.064074-23.630525-91.05544-36.765661-39.055564-17.110662-86.06218 4.00733-100.533093 38.451284-0.60428 1.367581-1.844644 2.385315-4.834239 6.042799z" fill="#273A50" /><path d="M190.061931 396.693853c0.031804 107.339193 1.59021 214.71019-0.699692 321.985776-0.763301 36.415815 16.569991 58.678759 41.82253 77.952107 23.59872 18.00118 50.950337 26.556511 81.22794 26.143057 40.168711-0.540671 80.337423 0.254434 120.506134 0.477063-20.100258 12.62627-42.776656 17.651334-65.707488 21.499643-28.782806 4.834239-58.042675 7.251359-86.952697 4.070938-52.985806-5.82017-91.341678-45.22558-92.136783-98.529428-1.717427-115.48107-0.731497-230.993944-0.699693-346.475014 0.031804-2.353511 1.717427-4.738827 2.639749-7.124142z" fill="#EEC0AB" /><path d="M586.533155 823.28366c41.758922-0.222629 83.517843-0.636084 125.276765-0.636084 48.755847-0.031804 85.521508-21.817685 113.541013-60.714228 6.042799-8.364506 7.346771-17.047054 7.346772-26.779141-0.127217-106.798522-0.095413-213.597043-0.063609-320.427369 0-6.329037 0.349846-12.658074 0.572476-18.987111 3.625679 3.40305 2.480728 7.887443 2.480728 11.990186 0.031804 112.237041 0.413455 224.442277-0.190825 336.679318-0.318042 57.438395-38.737522 100.342268-96.080505 104.826661-35.175451 2.735162-70.732553-0.858714-105.399136-9.382241-16.379166-4.070938-32.82194-7.728422-47.483679-16.569991z" fill="#EFC0AB" /><path d="M596.996739 850.667081h-172.378793c6.8061-7.919247 16.474578-9.350436 23.662329-14.470914 19.654999-14.025655 37.21092-29.673324 43.380936-54.416995 2.003665-8.078268 6.170016-13.294158 15.170606-13.230549 7.378576 0.031804 11.990185 3.943721 13.866633 10.718017 9.98652 35.779731 37.242724 53.24024 69.269559 65.739292 2.41712 0.954126 4.770631 2.130882 7.124142 3.212225l-0.095412 2.448924z" fill="#273A50" /><path d="M516.214057 626.606454c32.122247-0.445259 73.245085 18.700873 111.346523 46.084294 6.074603 4.357176 7.41038 10.622605 3.307638 16.697207-4.643414 6.901513-11.099668 5.629344-18.319223 3.212225-60.364382-20.227475-121.174022-22.549182-182.333509-3.593875-6.042799 1.876448-12.117402 3.848309-17.905768 6.392645-7.251359 3.212225-14.534522 5.438519-19.877628-2.289903-6.010995-8.682548 0.095413-14.82076 5.947386-20.481908 28.43296-27.351617 61.604746-44.23965 117.834581-46.020685z" fill="#123450" /><path d="M673.676678 463.06923c20.672733 0.286238 37.083703 17.01525 36.797466 37.592571-0.286238 20.545517-16.983446 36.892878-37.687984 36.892878-21.467839 0-38.101438-17.142467-37.465354-38.514893 0.667888-20.450104 17.492313-36.256794 38.355872-35.970556zM349.973476 536.664161c-21.722272 0.031804-36.797466-14.884368-36.82927-36.384011-0.031804-21.117992 15.774886-37.051899 36.861074-37.179116 21.595055-0.127217 37.974221 16.379166 37.656179 37.942417-0.349846 21.308818-15.488648 35.62071-37.687983 35.62071z" fill="#133450" /><path d="M510.902755 694.890083c7.283163 0.286238 14.629934-0.318042 21.690468 2.448924 3.721092 1.462993 9.286828 1.240364 6.742492 7.664813-1.781036 4.420785-1.81284 11.544927-9.541262 9.8275-12.435444-2.766966-24.616455-3.339442-37.306333-0.763301-6.360841 1.303972-8.173681-5.979191-9.668478-10.622605-2.162686-6.742492 4.866043-5.438519 7.951051-6.742491 6.329037-2.671553 13.294158-2.321707 20.132062-1.81284z" fill="#163651" /><path d="M576.13318 664.962326c-50.473274-11.513122-96.334938-7.982856-144.67733 4.929652 39.977886-30.945492 99.67438-33.299003 144.67733-4.929652z" fill="#273A50" /><path d="M676.284623 481.29304c9.064199 0.795105 15.520452 7.283163 16.092928 18.891698 0.540671 10.845234-9.286828 20.513712-20.03665 19.559586-11.41771-0.98593-18.22381-7.601205-18.700872-19.305153-0.508867-11.41771 8.173681-19.495978 22.644594-19.146131z" fill="#FCFCFD" /><path d="M370.010125 499.485045c-0.095413 11.926577-9.509457 21.117992-20.545516 20.259279-11.735752-0.922322-18.096593-8.078268-18.764482-19.432369-0.636084-11.036059 8.746156-19.018915 20.450104-18.796286 12.562661 0.190825 17.142467 8.046464 18.859894 17.969376z" fill="#FCFDFD" /></svg>