<svg class="svg-icon" style="width: 1em; height: 1em;vertical-align: middle;fill: currentColor;overflow: hidden;" viewBox="0 0 1024 1024" version="1.1" xmlns="http://www.w3.org/2000/svg"><path d="M510.998168 847.645681c-74.135603 0-148.30301 0.254434-222.438613-0.095412-61.700158-0.286238-113.159363-49.264714-117.516539-111.060285-0.413455-5.82017-0.508867-11.640339-0.508867-17.460509-0.031804-137.744013-0.063608-275.519831 0-413.263845 0.031804-78.842625 51.109358-129.697549 130.270025-129.729353 140.924434-0.063608 281.848868-0.063608 422.805106 0 79.001646 0.031804 129.85657 50.982141 129.888375 130.0792 0.063608 137.744013 0.063608 275.519831 0 413.263844-0.031804 77.888499-50.314253 128.393577-127.88471 128.520794-71.527658 0.095413-143.055316 0.031804-214.582973 0.031804-0.031804-0.095413-0.031804-0.190825-0.031804-0.286238z" fill="#123450" /><path d="M835.878125 526.009752c0.159021 48.183371-0.063608 96.398546 0.731497 144.550114 0.254434 14.916172-9.541262 10.940647-17.078858 10.940646-179.025872 0.031804-358.051744-0.127217-537.10942-0.190825-27.00177 0-54.035345-0.127217-81.037116 0.445259-9.573066 0.222629-14.025655-1.367581-13.99385-12.689878 0.413455-124.48166 0.254434-248.96332 0.349846-373.444979 0-5.21589-0.667888-10.686213 2.703358-15.361431 7.346771 7.41038 5.088673 16.888033 5.088673 25.634189 0.159021 113.890859 0.095413 227.813523 0.127216 341.736187 0 5.82017-0.254434 11.640339 0.763301 17.428704 1.017735 5.788365 4.770631 7.855639 10.145542 7.887443 5.374911 0.031804 9.159611-2.035469 10.304562-7.760226 1.049539-5.247694 0.890518-10.558996 0.890518-15.838494 0.031804-54.576016 0-109.152033 0.031804-163.696245 0-5.311302-0.190825-10.5908 0.159021-15.902103 0.349846-5.724757-0.731497-13.230549 4.993261-15.80669 6.837904-3.053204 9.286828 5.056869 12.880703 8.936982 17.047054 18.414635 40.391341 24.870889 62.0182 16.665403 21.149797-8.01466 34.125912-27.192596 34.316738-52.222505 0.38165-45.034755-0.254434-90.06951 0.254433-135.104264 0.286238-24.457434-8.332702-43.190111-30.245799-55.212101-3.7847-2.099078-10.081933-3.848309-8.237289-9.732086 1.335777-4.198155 6.869708-4.261764 11.067863-4.770631 4.198155-0.508867 8.459919-0.445259 12.689878-0.445259 134.563593-0.031804 269.127186 0.095413 403.722583-0.095413 27.065379-0.031804 49.805386 8.777961 67.424916 29.514303 11.354101 13.357766 17.460509 28.751002 17.428704 46.593161-0.095413 32.313073-0.318042 64.626145 0.127217 96.939218 0.190825 13.99385-4.134547 22.803615-18.573656 27.00177-17.810355 5.184085-26.524707 17.937572-26.143057 36.988291 0.413455 19.050719 0.413455 38.165046 0 57.215765-0.413455 19.050719 8.428114 31.708793 26.111253 37.083704 14.248284 4.325372 18.82809 13.198745 18.573656 27.160791-0.445259 23.82135-0.159021 47.674504-0.095413 71.527658 0 4.770631-0.159021 9.541262 1.113147 14.21648 1.622014 5.851974 6.170016 6.742492 11.163276 6.615274 4.707022-0.159021 7.982856-2.226294 8.936982-7.283163 1.303972-6.837904 0.826909-13.739417 0.858714-20.609125 0.095413-33.362611-0.254434-66.757027 0.254433-100.119638 0.190825-6.678883-2.353511-15.329627 7.283163-18.796286z" fill="#72B6DC" /><path d="M835.878125 526.009752c-4.357176 5.056869-2.480728 11.163276-2.512532 16.792621-0.159021 40.264124-0.699693 80.528248 0.254434 120.760568 0.318042 13.930242-5.82017 15.043389-16.983446 15.329627-11.767556 0.286238-15.711277-3.212225-15.393235-15.266019 0.795105-29.641519-0.031804-59.314843 0.445259-88.988167 0.127217-8.777961-2.130882-12.594465-11.290493-15.138801-26.874554-7.442184-33.489828-17.3969-33.489829-45.861664 0-18.541852-0.031804-37.083703 0-55.625556 0.031804-23.757741 7.601205-34.730192 31.104513-41.186446 10.495388-2.862378 14.089263-7.124142 13.803025-18.223809-0.826909-33.871479-0.222629-67.806566-0.349846-101.709849-0.127217-34.698388-30.691058-69.333168-65.612076-69.555797-146.553778-0.890518-293.139361-0.38165-440.265614 0.636084 16.092928 6.869708 29.387086 16.092928 36.447619 32.790136 3.180421 7.505792 5.247694 14.661739 5.21589 22.835419-0.190825 46.624965-0.095413 93.218126-0.095413 139.843091 0 32.408485-14.280088 54.22617-40.709383 62.336243-27.701463 8.491723-54.162562-2.544336-72.895239-32.058639-0.413455 6.233624-0.954126 10.495388-0.954126 14.757151-0.063608 64.085474-0.222629 128.202752 0.159021 192.288226 0.063608 11.576731-0.667888 18.192005-15.615864 18.38283-15.679473 0.190825-16.569991-6.742492-16.538187-19.050719 0.222629-126.580737-0.031804-253.161475-0.127217-379.774016 5.82017-46.052489 48.501413-85.044445 94.267665-85.108053 151.419822-0.190825 302.871448-0.222629 454.291269 0 50.632295 0.063608 95.921483 45.289188 96.748393 98.942882 1.144951 77.252415 0.159021 154.568438 0.095412 231.852657z" fill="#91D3EB" /><path d="M828.817592 761.233655c-14.693543 41.758922-51.681834 69.015126-95.826071 69.174147-147.317079 0.572476-294.634158 0.667888-441.919434-0.063608-39.373606-0.190825-69.555797-19.177936-89.878684-53.399261 3.943721-5.279498 9.096003-2.830574 13.357766-2.862379 49.805386-0.190825 99.610771-0.127217 149.416157-0.127217 6.710687 0 13.803025 1.81284 13.803025-9.573065 0-11.41771-7.155946-9.509457-13.834829-9.509458-52.445135-0.031804-104.922073-0.349846-157.367208 0.254434-10.908842 0.127217-15.679473-2.353511-17.587726-13.866634-6.678883-39.850669-4.675218-42.744852 35.398081-42.744852 197.122465 0 394.24493-0.063608 591.367394 0.190826 6.647079 0 17.365096-4.643414 19.400566 4.738826 2.480728 11.544927 3.530267 24.489238-1.335777 35.906948-2.353511 5.502128-9.636674 2.639749-14.629935 2.639749-81.609591 0.159021-163.219182 0.031804-244.796968 0.318042-5.088673 0.031804-13.198745-4.548001-14.661739 6.42445-1.526602 11.513122 4.261764 12.62627 13.675808 12.594465 78.938038-0.286238 157.90788-0.159021 236.877722-0.159021 5.692953 0.063608 11.449514 0.063608 18.541852 0.063608z" fill="#A86CAA" /></svg>