<svg class="svg-icon" style="width: 1em; height: 1em;vertical-align: middle;fill: currentColor;overflow: hidden;" viewBox="0 0 1024 1024" version="1.1" xmlns="http://www.w3.org/2000/svg"><path d="M600.208964 857.409572c-108.07069 0.063608-216.173184 1.462993-324.21207-0.286238-60.682424-0.98593-110.64683-55.402926-111.060285-119.202161-0.98593-150.974563-1.144951-301.949126 0.063608-452.923689C165.540889 216.332205 219.480821 165.381868 289.418269 165.09563c147.889555-0.572476 295.810914-0.508867 443.700469 0 72.290959 0.254434 124.958723 52.731372 125.085939 123.781967 0.159021 97.448085-0.318042 194.927975-0.540671 292.37606-9.573066-1.335777-14.82076-7.79203-19.050719-15.520452-2.067273-7.283163-1.526602-14.725347-1.526602-22.103923-0.063608-37.592571-1.622014-75.312358 0.477063-112.809516 1.749231-31.104513-7.601205-58.392521-21.086188-85.203466-13.230549-26.270274-41.44088-37.083703-72.990651-27.065379-30.722862 9.763891-59.82371 23.757741-89.878685 35.270864-33.585241 12.848899-67.138678 25.793211-100.310463 39.596235-28.464764 11.831164-55.561947 11.258689-84.185732-0.636084-59.44206-24.711868-119.679225-47.515483-179.598348-71.146007-40.868404-16.092928-69.301363-3.848309-87.938627 35.39808-10.527192 22.199335-14.566326 44.557692-14.375501 68.951518 0.795105 103.808926 0.286238 207.617853 0.413454 311.458583 0.445259 57.02494 46.147902 98.338603 110.933069 99.292729 48.787651 0.699693 97.607106-0.063608 146.426561 0.222629 43.953412 0.254434 87.938628-1.081343 131.89204 0.699693 10.558996 3.40305 19.559586 8.587135 23.344287 19.750411z" fill="#123450" /><path d="M840.553343 567.673261c6.965121 2.989595 12.181011 8.110072 17.142467 13.548592 2.289903 58.169892 3.498463 116.435196-0.413455 174.446066-3.339442 49.423735-54.257974 98.338603-104.126968 101.455415-50.886729 3.212225-101.964282 2.41712-152.946423 0.22263-6.710687-5.59754-13.453179-11.19508-20.195671-16.792621-10.145542-7.79203-6.869708-18.796285-7.155946-28.973631 2.79877-17.555921 13.739417-29.323477 30.245799-33.712457 20.736342-5.502128 31.676989-18.096593 36.765662-37.656179 3.848309-14.82076 12.467249-27.160791 24.775476-36.288599 19.559586-14.534522 34.189521-33.42622 49.964406-51.491008 18.128397-20.736342 36.065969-42.076964 65.771097-48.660434 11.990185-2.639749 18.510048-13.707613 25.093518-23.566917 10.050129-14.884368 18.955306-17.873963 35.080038-12.530857z" fill="#705926" /><path d="M840.553343 567.673261c-15.711277-1.971861-26.206665 4.516197-34.157716 18.001181-7.696618 13.00792-18.796285 21.372426-34.952822 25.284343-20.990776 5.088673-34.857409 21.849489-48.469609 37.497158-18.764481 21.531447-34.602975 45.448209-59.728297 61.350312-13.039724 8.237289-17.905768 23.471504-21.817685 37.847005-4.516197 16.665404-13.166941 27.60605-31.486164 31.645184-16.315557 3.593875-29.132652 13.262354-33.712457 30.595646-3.689288 7.855639-11.131472 7.601205-18.032985 7.633009-86.634655 0.222629-173.269311 1.462993-259.840358-0.508867-41.154642-0.922322-75.216946-19.941237-101.296394-51.872659-6.901513-8.459919-11.290493-17.905768-13.484983-28.464764-0.190825-113.922664-1.781036-227.908936 0.508868-341.767991 0.540671-25.920427 14.152871-52.317918 35.01643-71.114203 19.273348-17.3969 42.681244-18.160201 66.407181-8.841569 64.117278 25.284343 128.26636 50.505078 192.192813 76.266484 22.676398 9.127807 44.653104 9.414045 67.23409 0.381651 62.145417-24.743672 124.449856-49.169301 186.627077-73.849365 45.798056-18.160201 75.534988-5.247694 95.603441 39.40541 10.050129 22.326552 14.439109 44.6213 13.834829 69.015126-1.144951 47.165637-0.413455 94.331273-0.445259 141.496909z" fill="#FBDBCB" /><path d="M839.726434 336.234059c-8.682548-11.767556-16.824425-23.566916-29.228065-31.327142-22.580986-14.121067-46.783986-18.637264-72.22735-8.746157-63.385781 24.648259-126.803367 49.201106-189.775693 74.771687-24.107588 9.795695-46.21151 11.640339-71.177812 1.017735-58.106283-24.680063-117.325714-46.879399-175.972668-70.319098-51.554617-20.609125-85.267075-10.781626-116.212567 34.380346-6.042799-58.678759-3.053204-92.772867 33.553437-126.389912 18.541852-17.047054 40.8366-26.047644 65.675684-26.111253 151.610647-0.445259 303.221294-0.445259 454.831941-0.095413 51.331987 0.127217 94.331273 41.122838 99.833401 92.232196 2.162686 20.036649 2.162686 39.977886 0.699692 60.587011z" fill="#7D4228" /><path d="M183.573873 736.649005c22.485573 40.8366 55.784576 67.265894 103.141038 74.803491 5.247694 0.826909 10.622605 1.431189 15.933907 1.462993 85.489704 0.095413 171.011212 0.063608 256.500916 0.063608 5.915582 0 11.894773 0.477063 17.110663-3.116812-1.272168 10.558996 0.795105 20.704538 3.7847 30.722863-95.539833 0-191.079666 0.222629-286.619498-0.063609-63.385781-0.159021-111.060285-45.60723-109.851726-103.872534z" fill="#EEBFAB" /><path d="M841.062211 671.259558c-1.367581 22.23114 1.367581 49.169301-2.003665 76.139268-6.138212 49.042085-44.430475 86.793676-93.886014 91.532503-41.281859 3.943721-82.595521 1.399385-123.909184 1.908252-13.357766 0.159021-24.934497-4.802435-26.938162-19.654999-1.940057-14.375501 8.078268-21.436034 20.386495-24.203 25.570581-5.756561 39.055564-22.199335 45.130168-46.084293 4.134547-16.220145 13.771221-27.796875 28.305742-36.82927 18.00118-11.163276 28.43296-29.959561 42.076964-45.480014 17.269684-19.623195 33.267199-39.469019 61.763767-45.289188 14.407305-2.925987 22.708203-16.919837 30.818275-28.910023 2.862378-4.229959 5.438519-10.240954 12.149206-7.951051 6.138212 2.099078 6.106407 8.01466 6.106408 13.421374v71.400441z" fill="#C19F59" /><path d="M348.351461 527.949809c-20.863559 0.159021-38.260459-16.251949-38.705718-36.574836-0.445259-20.322887 16.474578-37.560767 37.179116-37.942417 21.722272-0.413455 39.500823 16.379166 39.500824 37.274529 0.031804 20.322887-17.047054 37.051899-37.974222 37.242724z" fill="#143551" /><path d="M637.610709 490.007392c0.286238-20.895363 16.601795-36.543032 38.006025-36.479424 21.944902 0.095413 38.133242 16.729012 37.497159 38.514893-0.60428 21.181601-16.188341 35.23906-38.705718 35.048234-21.817685-0.159021-37.083703-15.552256-36.797466-37.083703z" fill="#133450" /><path d="M508.740069 689.228934c15.743082-1.717427 29.832345 2.862378 44.335062 3.371246 4.643414 0.159021 10.908842 0.667888 8.968786 9.382241-1.494798 6.678883-2.703357 10.558996-10.940647 9.159611-26.588316-4.484393-53.303848-5.470323-79.923968-0.349846-8.300898 1.59021-8.364506-4.452589-10.081933-9.064199-2.480728-6.583471 1.940057-8.809765 7.187751-9.255024 13.866634-1.240364 27.478833-5.374911 40.454949-3.244029z" fill="#163551" /><path d="M801.306954 745.140727c1.272168-4.039134 3.721092-7.092338 7.633009-7.346771 4.484393-0.286238 6.583471 3.148616 6.392646 7.219555-0.159021 4.134547-2.894183 6.837904-7.060534 7.092337-4.770631 0.254434-5.661149-3.816505-6.965121-6.965121z" fill="#B3924D" /><path d="M802.515514 780.157157c-0.667888 3.466658-2.19449 6.360841-6.297233 5.184086-3.434854-0.954126-8.01466-1.971861-7.41038-6.774296 0.445259-3.689288 2.448924-7.346771 7.442184-6.360841 4.166351 0.858714 6.265428 3.721092 6.265429 7.951051z" fill="#B4924E" /><path d="M724.340777 707.261919c0.063608 3.689288-2.067273 5.82017-5.470323 6.519862-4.198155 0.858714-7.537597-0.922322-8.364506-5.025065-0.731497-3.562071 1.940057-5.788365 5.279498-6.488057 4.229959-0.890518 7.060534 1.049539 8.555331 4.99326z" fill="#B2904C" /><path d="M770.297854 737.984781c-0.445259 3.880113-1.940057 7.283163-6.583471 6.996925-3.593875-0.222629-5.533932-3.085008-5.533931-6.456253-0.031804-4.00733 1.844644-7.346771 6.456253-7.092338 3.625679 0.222629 5.184085 3.116812 5.661149 6.551666z" fill="#B2914C" /><path d="M690.183061 751.565177c-3.752896-0.286238-5.756561-2.544336-6.170016-5.915582-0.540671-4.102742 1.240364-7.346771 5.661148-7.760226 3.689288-0.349846 5.692953 2.41712 6.170016 5.724757 0.540671 4.134547-1.399385 6.933317-5.661148 7.951051z" fill="#B2904C" /><path d="M817.46349 686.080318c4.00733 0.60428 7.346771 2.321707 6.8061 6.837904-0.413455 3.434854-3.40305 5.311302-6.837904 5.184086-4.070938-0.159021-7.346771-2.226294-6.837904-6.710688 0.413455-3.466658 3.371246-5.025064 6.869708-5.311302z" fill="#B2914C" /><path d="M767.149238 680.005715c-0.477063 4.643414-2.003665 7.982856-6.647079 7.728422-3.593875-0.222629-5.502128-3.085008-5.533932-6.456254-0.031804-4.00733 1.844644-7.314967 6.456254-7.092338 3.689288 0.159021 4.834239 3.339442 5.724757 5.82017z" fill="#B2904C" /><path d="M743.264279 787.376712c-4.134547-0.922322-7.028729-2.258099-5.947386-6.360841 0.826909-3.116812 2.480728-6.042799 6.424449-5.692953 3.434854 0.286238 6.297233 2.099078 6.329037 5.756561 0.031804 4.61161-3.657484 5.661149-6.8061 6.297233z" fill="#B2914C" /><path d="M718.647824 816.763798c-0.286238 3.975526-2.671553 5.565736-6.424449 5.470323-3.880113-0.127217-6.106407-2.067273-5.406715-6.010995 0.636084-3.434854 2.989595-5.629344 6.647079-5.756561 4.325372-0.159021 5.21589 2.766966 5.184085 6.297233zM763.873404 822.29773c0 3.689288-1.59021 6.106407-5.59754 6.265428-3.593875 0.159021-6.519862-0.954126-6.360841-5.152281 0.159021-3.562071 2.385315-5.883778 5.883778-6.488058 4.134547-0.731497 5.883778 1.558406 6.074603 5.374911z" fill="#B1904C" /><path d="M719.538342 746.540112c0.858714-3.244029 2.512532-5.915582 6.265429-5.533931 3.562071 0.349846 5.406715 2.894183 5.470323 6.329037 0.063608 4.039134-2.79877 5.056869-6.265429 4.99326-3.752896-0.095413-5.756561-1.876448-5.470323-5.788366z" fill="#B18F4B" /><path d="M676.761686 793.546728c-0.031804 3.40305-0.922322 6.233624-5.088673 6.138212-3.466658-0.063608-6.074603-1.940057-6.392645-5.406715-0.318042-3.625679 2.289903-5.59754 5.629344-6.074604 3.943721-0.60428 5.661149 1.685623 5.851974 5.343107z" fill="#B08F4B" /><path d="M367.370376 492.583533c-0.731497 10.272758-7.442184 16.760816-19.050719 17.619529-10.940647 0.795105-20.227475-8.936982-20.004845-19.941236 0.222629-11.226884 9.541262-19.750412 20.863559-19.114328 10.781626 0.636084 18.446439 9.00059 18.192005 21.436035z" fill="#FCFDFD" /><path d="M673.454049 471.751778c14.025655-0.031804 20.354691 7.028729 21.849489 18.032985 1.462993 10.654409-8.459919 20.259279-19.623195 20.418299-11.163276 0.159021-21.372426-9.191415-20.227475-19.877628 1.144951-11.036059 7.378576-18.22381 18.001181-18.573656z" fill="#FAFBFC" /></svg>