<svg class="svg-icon" style="width: 1em; height: 1em;vertical-align: middle;fill: currentColor;overflow: hidden;" viewBox="0 0 1024 1024" version="1.1" xmlns="http://www.w3.org/2000/svg"><path d="M871.975898 775.831786c4.134547 35.684318 3.593875 36.733857-16.729012 30.881883-1.367581 15.615865 0.190825 31.136317-2.607944 46.497748-10.081933 55.752772-56.325248 96.239525-112.873125 96.398547-141.719539 0.38165-283.407274 0.413455-425.126813 0-64.117278-0.190825-114.399727-51.268379-115.194832-115.544678-0.063608-5.565736 0-11.131472 0-16.538187-4.166351-3.212225-6.583471 1.462993-9.8275 1.303972-8.459919-0.413455-14.21648-2.321707-9.922912-12.817095 3.816505-9.286828 6.996925-18.82809 11.513123-31.072708-32.790136 0-63.926453 0.095413-95.094574-0.095413-5.088673-0.031804-10.845234 2.099078-14.057459-5.343106-3.339442-7.728422 2.766966-10.113737 6.265428-13.644004 31.772401-32.154052 63.544802-64.308103 95.794267-95.985092 7.79203-7.664813 7.855639-10.749821-2.894183-14.629935-21.40423-7.728422-42.458614-16.474578-63.576606-24.998105-15.743082-6.360841-16.41097-10.686213-3.911918-21.277013 7.314967-6.20182 14.470913-12.594465 23.4397-20.450104-18.00118-6.647079-34.666584-12.912507-51.4274-18.923503-20.895363-7.537597-41.917943-14.693543-62.749698-22.39016-4.261764-1.59021-9.732087-2.226294-9.636674-9.636674 0.095413-7.283163 5.152281-7.855639 9.668479-9.60487 54.22617-20.768146 108.388732-41.695313 162.837531-61.922788 9.763891-3.625679 13.166941-7.887443 14.184676-18.987111 2.862378-30.945492-5.82017-56.42066-24.680064-81.196136-25.379756-33.42622-47.515483-69.333168-70.859769-104.28599-2.957791-4.420785-9.477653-8.428114-1.81284-15.170606 6.965121-6.106407 11.036059-0.858714 15.774886 2.321707C150.052241 259.808554 181.538404 281.053763 213.088176 302.235364c2.894183 1.940057 5.915582 3.625679 11.036059 6.774295-2.035469-15.965711-3.752896-29.736932-5.565736-43.539957-0.667888-4.961456-2.480728-9.98652 2.957791-13.707612 5.406715-3.721092 9.700283-1.049539 13.644004 2.289902 33.521632 28.496568 72.195546 37.242724 115.226636 31.23173 10.463584-1.462993 21.308818-0.222629 31.963227-0.222629 29.069044 0 29.037239 0 39.278193-27.860484 11.513122-31.263534 23.121657-62.495264 35.111843-94.871945 11.41771 10.622605 15.965711 24.998105 26.270274 37.656179 25.125322-58.901388 49.646365-116.339783 75.185141-176.131689 15.106998 46.974811 29.482498 91.65972 43.826195 136.376433 12.181011 38.006025 24.489238 75.980247 36.288599 114.113488 2.448924 7.887443 5.533932 12.244619 14.566326 10.877039 5.470323-0.826909 11.258689-0.858714 16.729012-0.031805 47.070224 6.965121 87.588782-4.866043 119.997266-40.900208 3.466658-3.848309 7.728422-7.18775 13.198746-3.880113 4.548001 2.735162 4.420785 7.473988 3.880113 12.244619-1.144951 9.509457-2.067273 19.050719-3.307638 30.945492 17.873963-7.124142 34.475759-13.644004 50.982142-20.386495 19.177936-7.855639 38.165046-16.124732 57.438394-23.694133 4.579806-1.781036 9.636674-6.297233 15.138802-0.159021 5.279498 5.915582 1.049539 10.081933-1.399385 14.757151-21.722272 41.727117-42.935677 83.708669-65.453054 125.022331-8.841569 16.220145-3.752896 32.726527-4.929652 49.073889-0.38165 5.247694 5.120477 5.056869 8.936981 6.20182 44.6213 13.039724 89.2426 26.143057 133.768488 39.469019 4.770631 1.431189 11.354101 0.318042 12.785291 8.141876 1.558406 8.459919-5.120477 10.113737-9.891108 13.294158-21.817685 14.566326-43.762587 28.941827-66.089139 43.667174 25.093518 16.092928 25.02991 16.02932 3.816505 34.571171-19.114327 16.697208-37.783396 33.903283-57.279374 50.123428-7.283163 6.042799-6.583471 9.795695-1.399385 16.856229 28.21033 38.355872 55.911793 77.093394 83.581452 115.830916 2.957791 4.134547 8.523527 7.378576 5.215889 14.502718-3.752896 8.046464-10.431779 4.802435-15.870298 4.866043-26.938162 0.286238-53.780911 0.095413-80.750878 0.095413z" fill="#123450" /><path d="M147.158058 278.922881c32.026835 21.40423 64.05367 42.80846 98.529428 65.866509-2.766966-23.980371-5.152281-44.875734-7.919247-68.8243 17.460509 10.622605 33.076374 20.036649 48.62863 29.577911 31.549772 19.305153 63.035935 38.705718 94.585707 58.01087 14.375501 8.809765 16.951641 7.887443 22.740007-7.887442 17.492313-47.451874 34.889213-94.935553 52.540547-142.355624 1.335777-3.562071 1.431189-8.046464 6.710687-11.226884 7.18775 11.354101 14.343697 22.644594 22.708203 35.811535 23.407895-54.766842 46.116098-107.911669 70.191881-164.205112 10.654409 32.726527 20.386496 62.336243 29.895953 92.009566 20.386496 63.544802 40.61397 127.121409 61.03227 190.666211 5.21589 16.283753 7.601205 16.983446 21.499643 6.042799 38.960152-30.691058 77.793086-61.572942 118.915924-94.172252-1.049539 9.795695-2.130882 16.919837-2.512532 24.107588-0.731497 14.152871 2.576141 16.633599 15.679473 11.385905 30.500233-12.244619 60.905053-24.775476 91.341678-37.179116 2.19449-0.890518 4.484393-1.622014 9.509457-3.434854-21.976706 42.140572-42.681244 81.83222-63.385781 121.492064-6.8061 13.039724-13.357766 26.206665-20.354691 39.150977-5.088673 9.414045-3.498463 14.343697 7.633009 17.460509 45.289188 12.721682 90.355747 26.206665 135.485915 39.437215 6.233624 1.844644 12.40364 3.943721 20.640929 6.58347-20.545517 13.548591-39.437215 26.206665-58.519738 38.578501-19.018915 12.308227-19.050719 15.266019 0.636084 27.351617 2.099078 1.272168 4.070938 2.79877 6.8061 4.675218-22.580986 19.845824-44.144237 39.914278-66.979656 58.392521-11.513122 9.350436-11.099668 16.188341-2.735162 27.415225 27.574246 36.861074 54.098953 74.485449 82.500109 113.827251-21.722272 0-41.154642 0.031804-60.555207 0-29.355282-0.031804-29.355282-0.063608-28.528372 28.560176-35.270864-15.329627-69.842035-30.341212-104.381402-45.352796-55.212101-24.012175-110.456005-47.992546-165.636302-72.06833-35.080039-15.297823-69.905643-14.629934-104.635836 1.017735-86.761872 39.087368-173.49194 78.238345-260.285616 117.230301-4.452589 2.003665-8.714352 5.59754-14.502718 3.466658-2.130882-1.240364 0.127217-2.353511 0.572476-3.307637 11.990185-27.447029 10.845234-29.291673-19.559587-29.482499-23.694133-0.159021-47.42007-0.031804-75.916638-0.031804 27.765071-27.383421 52.508743-51.809051 77.252415-76.23468 8.300898-8.205485 16.315557-16.729012 24.80728-24.743672 9.032394-8.523527 7.664813-14.280088-3.721092-18.796285-24.870889-9.827499-49.61456-19.973041-76.489114-30.818275 8.714352-7.505792 16.442774-14.248284 24.266609-20.895363 12.276423-10.463584 11.735752-15.106998-3.116812-20.577321-34.157717-12.562661-68.44265-24.839084-105.176507-38.133242 42.585831-16.283753 82.977172-31.740597 123.400317-47.165637 23.630525-9.032394 47.133832-18.414635 70.955182-26.906357 12.085598-4.293568 13.230549-9.891108 6.233624-20.100258-31.23173-45.639035-61.954592-91.532503-92.836475-137.362363-3.307637-4.897848-6.424449-9.891108-9.636675-14.82076 0.572476-0.667888 1.113147-1.335777 1.685623-2.035469z" fill="#F5DA65" /><path d="M217.763394 833.747244c-2.385315-26.206665-2.41712-26.238469 21.277013-36.924683 81.641395-36.765661 163.410007-73.245085 244.892382-110.360592 31.995031-14.566326 63.385781-15.106998 95.539833-1.049539 81.991241 35.938752 164.077895 71.718483 246.291766 107.180172 8.237289 3.562071 11.862969 7.79203 10.845234 16.824424-0.890518 8.046464-0.508867 16.220145-0.667888 24.330218-14.057459 41.82253-46.656769 61.922788-86.44383 73.022455-12.658074 3.530267-25.888623 4.579806-39.182781 4.579806-122.223561-0.127217-244.447122 0-366.702488-0.127217-41.377271-0.031804-77.570457-12.689878-106.385067-43.889804-9.127807-9.922912-16.220145-20.481908-19.464174-33.58524z" fill="#FBDACA" /><path d="M217.763394 833.747244c19.718607 31.899618 44.557692 57.597416 82.309284 67.361306 12.689878 3.275833 25.538777 5.724757 38.80113 5.724757 121.333043-0.063608 242.634283-0.763301 363.967326 0.286238 59.028605 0.508867 103.808926-21.563251 133.132404-73.372301 1.844644 47.102028-35.843339 91.691524-82.531913 97.448085-7.028729 0.858714-14.152871 1.20856-21.245209 1.20856-136.8853 0.063608-273.802404 0.159021-410.687704 0.031804-51.999876-0.063608-90.387552-28.941827-102.059695-76.139268-1.81284-7.442184-2.639749-14.916172-1.685623-22.549181z" fill="#F5CCBA" /><path d="M321.667733 303.348511c23.694133 0 47.388266 0.095413 71.050595-0.063609 7.346771-0.031804 12.658074 0.763301 7.601205 9.954717-5.533932 10.050129-3.752896 26.651924-13.803025 30.341212-8.873373 3.244029-18.923502-8.936982-28.369351-14.375501-12.62627-7.251359-24.743672-15.361431-37.083704-23.089853 0.190825-0.922322 0.413455-1.844644 0.60428-2.766966zM712.541417 303.348511c-14.916172 16.02932-29.927757 25.984036-44.23965 36.702053-5.025064 3.752896-8.364506 1.431189-10.336366-3.848309-0.349846-0.954126-0.667888-1.908252-0.985931-2.862379-9.60487-29.991366-9.60487-29.991366 22.294748-29.991365h33.267199z" fill="#102F46" /><path d="M219.385409 424.713358c3.816505 4.579806 10.5908 7.41038 8.17368 14.375501-0.477063 1.367581-5.438519 2.894183-6.710687 2.035469-6.106407-4.325372-1.940057-10.622605-1.462993-16.41097z" fill="#103047" /><path d="M719.888188 627.401559c-30.02317-4.102742-58.83778-13.771221-88.383886-20.068453-12.340032-2.639749-24.552847-5.915582-36.765662-9.096003-6.647079-1.749231-12.467249-4.866043-13.739416-12.499053-1.303972-7.760226 3.593875-12.02199 9.350436-15.838494 38.355872-25.538777 76.489114-51.4274 115.099419-76.584527 22.517377-14.693543 47.483679-8.682548 61.922788 13.83483 2.703357 4.229959 5.152281 8.682548 7.505792 13.135136 22.485573 42.999286 15.552256 70.160077-24.839084 98.052366-9.096003 6.233624-19.082523 9.127807-30.150387 9.064198z" fill="#102F46" /><path d="M340.845669 626.924496c-15.138802 0.60428-25.920427-2.19449-34.793801-9.573066-12.880703-10.749821-24.616455-23.058049-32.885548-37.560766-15.902103-27.924092 4.643414-49.042085 15.965711-71.336833 8.300898-16.379166 22.644594-23.662329 41.377271-22.549181 7.982856 0.477063 14.916172 3.116812 21.245209 7.283163 38.41948 25.41156 76.616331 51.109358 115.004007 76.584526 5.883778 3.911917 10.431779 8.332702 9.38224 15.902103-0.98593 6.869708-5.915582 10.431779-12.212814 11.990185-39.150977 9.668478-78.333758 19.241544-117.548343 28.751002-2.957791 0.699693-6.074603 0.540671-5.533932 0.508867z" fill="#113046" /><path d="M561.725875 808.144858c-22.485573-3.116812-47.6427-4.484393-72.768022 0.349846-9.064199 1.749231-8.364506-4.866043-9.891108-9.763891-2.289903-7.251359 3.371246-6.965121 7.696618-7.760226 26.683728-5.025064 53.335652-3.371246 80.019381 0.190826 6.329037 0.858714 8.587135 3.880113 7.696617 10.240954-0.890518 6.265428-3.625679 9.159611-12.753486 6.742491z" fill="#163551" /><path d="M684.680933 531.702705c10.718017-14.661739 26.238469-22.835419 42.617635-28.496568 9.096003-3.148616 18.382831 1.876448 23.503308 10.20915 7.346771 12.02199 13.580396 24.743672 19.941237 37.369941 2.607945 5.152281 2.226294 10.81343 0.349846 16.283754-12.499053 36.193186-44.303258 50.059819-80.432835 35.143647 2.576141-4.134547 7.378576-5.025064 11.036059-7.601206 10.145542-7.092338 16.569991-15.997515 15.043389-29.100847-1.526602-13.039724-7.823835-22.517377-20.227475-27.669659-4.102742-1.685623-8.936982-2.067273-11.831164-6.138212z" fill="#FADACA" /><path d="M684.680933 531.702705c21.02258 1.526602 34.539367 13.421375 36.161382 31.804206 1.749231 20.036649-9.127807 33.998696-30.213996 38.705718-10.336367 0.763301-20.068454-1.049539-28.910022-6.710688-15.615865-10.940647-18.987111-23.471504-11.258689-41.886138 9.096003-10.940647 16.824425-24.012175 34.221325-21.913098z" fill="#143450" /><path d="M650.459608 553.583999c-2.19449 15.552256-0.667888 30.118582 11.258689 41.886138-19.146132-1.59021-36.988291-8.809765-59.314843-12.944312 17.905768-10.527192 30.500233-23.535112 48.056154-28.941826z" fill="#F6D6C7" /><path d="M366.225425 604.820573c-1.017735 0-2.162686-0.318042-2.989596 0.063609-35.747927 15.965711-55.975401-5.470323-73.626735-31.295338-13.930242-20.386496 5.21589-34.602975 11.449514-51.013946 4.325372-11.354101 12.149206-19.623195 25.888623-19.718607 5.915582-0.031804 10.908842 1.971861 15.393236 5.184085 10.972451 7.855639 23.376091 13.707613 33.012765 23.407896-2.79877 4.325372-7.855639 3.975526-11.862969 5.692952-22.771811 9.763891-27.192596 37.401746-9.032394 54.321583 4.261764 4.00733 12.562661 4.834239 11.767556 13.357766z" fill="#FADACA" /><path d="M366.225425 604.820573c-2.385315-1.685623-4.643414-3.562071-7.124142-5.056868-17.047054-10.20915-23.59872-24.075783-19.495978-41.599901 3.689288-15.80669 15.933907-24.966301 35.747927-26.715532 14.947977 1.272168 25.506973 9.795695 34.507562 20.895363 6.678883 19.177936 4.166351 30.277604-9.096002 40.359536-9.096003 11.004255-23.153462 7.696618-34.539367 12.117402z" fill="#133450" /><path d="M400.732988 592.703171c10.368171-11.79936 9.22322-26.206665 9.096002-40.359536 13.898438 9.509457 27.82868 19.050719 44.112433 30.18219-19.591391 3.593875-35.461689 11.290493-53.208435 10.177346z" fill="#F7D7C8" /><path d="M685.762276 585.547225c-10.81343 0.318042-20.036649-8.046464-19.368761-18.446439 0.699693-11.004255 7.155946-17.61953 18.192005-18.60546 9.98652-0.890518 19.591391 8.841569 19.495978 18.923502-0.127217 9.668478-8.364506 17.873963-18.319222 18.128397z" fill="#FDFDFE" /><path d="M368.260894 549.290431c16.02932-0.413455 25.252539 7.696618 24.743672 17.937572-0.540671 11.131472-7.219555 17.61953-18.001181 18.859893-9.922912 1.144951-20.132062-8.61894-19.527782-18.700872 0.636084-10.81343 6.360841-17.587726 12.785291-18.096593z" fill="#FCFCFD" /></svg>