<?xml version="1.0" encoding="UTF-8" standalone="no"?>
<!-- Created with Inkscape (http://www.inkscape.org/) -->

<svg
   version="1.1"
   id="svg1"
   width="1087.1263"
   height="889.73798"
   viewBox="0 0 1087.1263 889.73798"
   xmlns="http://www.w3.org/2000/svg"
   xmlns:svg="http://www.w3.org/2000/svg">
  <defs
     id="defs1" />
  <g
     id="layer3"
     style="display:inline"
     transform="translate(932.11517,-84.729836)">
    <path
       style="display:inline;fill:#000000"
       d="m -733.70701,84.737993 196.34413,1.03339 -0.51118,97.125107 99.73026,0.52489 -0.51385,97.63091 97.65811,0.51399 0.53022,-100.74187 97.63091,0.51385 0.50846,-96.608426 195.794818,1.030499 -0.522005,99.180957 102.868421,0.54141 -0.535803,101.80242 99.735709,0.52493 -1.01422,192.70017 -99.224458,-0.52223 -0.514019,97.66354 -97.652664,-0.51396 -0.519486,98.70234 -98.680583,-0.51937 -0.53572,101.78611 -98.69147,-0.51943 -0.51934,98.67515 -99.70851,-0.52478 -0.52489,99.73026 -95.59682,-0.50314 0.52484,-99.71939 -97.65267,-0.51396 0.50852,-96.6193 -99.69763,-0.52473 0.51929,-98.66427 -99.73571,-0.52492 0.51943,-98.69147 -101.79155,-0.53574 0.51937,-98.68059 -97.6581,-0.51399 1.01971,-193.74441 95.05294,0.50028 0.53603,-101.84594 101.80787,0.53583 0.52464,-99.681312 z"
       id="path1" />
    <path
       style="display:inline;fill:#9e9e9e;fill-opacity:1"
       d="m -731.64023,184.97684 193.24396,1.03339 -0.51938,97.12484 99.72206,0.53328 -0.51667,96.61645 101.80536,0.54441 0.52237,-97.68297 97.62771,0.52208 0.53327,-99.72207 194.785714,1.04164 -0.508361,95.06365 98.705278,0.52783 -1.063591,198.89153 -97.124845,-0.51939 -0.533361,99.73864 -98.666594,-0.52763 -0.53334,99.73312 -96.63303,-0.51676 -0.5278,98.69975 -99.69443,-0.53312 -0.003,0.53049 4.64183,0.0248 -0.5112,95.59414 -102.81109,-0.54979 0.50559,-94.54421 -96.64409,-0.51681 0.53322,-99.71101 -94.56079,-0.50567 0.54983,-102.81662 -103.84998,-0.55535 0.50003,-93.50531 -99.2192,-0.53059 1.05284,-196.88006 98.67212,0.52766 z"
       id="path2" />
    <rect
       style="display:inline;fill:#ffffff;fill-opacity:1"
       id="rect2"
       width="98"
       height="98"
       x="-732.67365"
       y="283.1489" />
    <rect
       style="display:inline;fill:#575757;fill-opacity:1"
       id="rect3"
       width="98"
       height="98"
       x="-142.67365"
       y="383.1489" />
    <rect
       style="display:inline;fill:#575757;fill-opacity:1"
       id="rect4"
       width="98"
       height="98"
       x="-240.67365"
       y="481.1489" />
    <rect
       style="display:inline;fill:#575757;fill-opacity:1"
       id="rect5"
       width="98"
       height="98"
       x="-340.67365"
       y="579.14893" />
  </g>
</svg>
