<svg class="svg-icon" style="width: 1em; height: 1em;vertical-align: middle;fill: currentColor;overflow: hidden;" viewBox="0 0 1024 1024" version="1.1" xmlns="http://www.w3.org/2000/svg"><path d="M856.1056 385.657794c1.908252-4.198155 4.229959-8.300898 5.661148-12.658074 2.79877-8.428114 8.523527-12.244619 16.951642-10.240954 8.141877 1.940057 9.763891 8.809765 9.636674 16.188341-0.540671 31.23173-2.130882 62.304438-8.173681 93.090909-3.816505 19.464174-8.300898 38.355872-23.662328 52.381526-4.834239 4.420785-2.925987 9.891108-2.925987 14.884368-0.159021 66.788831-0.063608 133.577663-0.095413 200.366494-0.063608 77.475044-51.013945 128.838836-128.043731 128.838836-142.578253 0.063608-285.156505 0.063608-427.734758 0-75.089729-0.031804-127.248626-50.982141-127.980122-126.07187-0.636084-66.788831-0.254434-133.577663-0.031804-200.366494 0.031804-9.255024-1.59021-16.474578-8.364506-24.012175-13.548591-15.075193-16.633599-35.143647-19.877629-54.353387-4.61161-27.192596-5.311302-54.766842-5.756561-82.309283-0.127217-7.951051-0.699693-17.206075 9.986521-18.732677 8.936982-1.272168 14.343697 4.516197 17.269683 12.721682 1.176756 3.275833 2.766966 6.392645 6.615275 9.255024 0-25.570581-0.031804-51.172966 0-76.743548 0.127217-81.895829 51.013945-132.814362 132.87797-132.846166 139.938504-0.063608 279.845203-0.095413 419.783707 0.031805 80.560052 0.063608 131.192347 50.727708 131.224151 130.8425v79.319689c0.890518 0.127217 1.749231 0.254434 2.639749 0.413454z" fill="#123450" /><path d="M189.171413 747.557847c-0.159021-96.939218-0.38165-193.878436-0.477063-290.849458-0.063608-54.035345-0.095413-108.07069 0-162.137839 0.127217-54.766842 45.384601-100.374072 99.833401-100.405876 148.875485-0.095413 297.750971-0.095413 446.626456 0 51.141162 0.031804 95.508029 41.409075 99.515358 92.613846 0.540671 6.869708 0.667888 13.771221 0.667889 20.640929 0.031804 140.415567 0.031804 280.799329-0.031804 421.214896 0 7.378576-0.699693 14.757151-1.081343 22.167531-14.343697 38.673914-44.875734 58.774172-81.927633 71.273224-10.845234 3.657484-17.206075-1.653819-20.672734-11.544926-4.61161-13.103333-6.837904-26.779141-8.205485-40.423145-5.406715-53.717303-3.148616-106.098829 29.800541-152.405752 3.371246-4.738827 3.053204-4.961456 4.007329-14.534522-7.633009 0.667888-10.145542 7.251359-13.516787 12.149206-21.277013 31.136317-29.927757 66.375377-32.090443 103.427276-1.685623 28.782806 2.258099 57.088549 8.523527 85.139858 4.675218 20.79995 1.908252 24.362021-19.877628 24.393825-125.626611 0.159021-251.221418 0.159021-376.84803 0-22.930832-0.031804-25.188931-3.180421-20.036649-25.093518 9.795695-41.82253 11.862969-83.835885 2.79877-126.040066-4.961456-23.089853-14.375501-44.303258-27.892288-63.672019-2.989595-4.261764-5.470323-9.064199-11.640339-11.41771-3.943721 5.979191 0.349846 10.050129 2.925987 13.993851 39.437215 59.82371 40.645774 124.227226 23.248874 190.920645-2.925987 11.226884-8.555331 19.082523-21.308818 14.788955-37.974221-12.817095-70.001056-32.662919-82.341088-74.199211z" fill="#FBDBCB" /><path d="M189.171413 747.557847c16.569991 30.722862 40.041495 53.749107 72.863435 67.011461 20.481908 8.269093 22.930832 7.664813 27.892288-12.912508 12.753486-52.890394 14.439109-105.176507-8.650744-156.09504-5.470323-12.053794-11.735752-23.789546-20.450104-33.648849-5.883778-6.615275-4.484393-10.463584 1.081343-15.679473 6.678883-6.297233 9.700283 0.031804 12.467249 3.625679 24.966301 32.758332 39.659844 69.555797 41.440879 110.901264 1.526602 34.921017 0.254434 69.683014-10.940646 103.300059-2.41712 7.251359 0.190825 9.891108 7.18775 9.795696 2.639749-0.031804 5.311302 0.031804 7.951051 0.031804 127.630276 0 255.260552-0.254434 382.890829 0.349846 15.393235 0.063608 17.333292-4.102742 13.803025-17.842159-15.520452-60.491599-14.757151-120.156288 13.325962-177.372053 4.834239-9.827499 11.831164-18.732677 18.732677-27.351617 2.544336-3.180421 4.707022-10.81343 11.894773-5.661149 7.283163 5.184085 6.392645 10.177346 1.272168 17.047055-14.311892 19.177936-25.443364 40.136907-30.595646 63.767431-9.509457 43.603566-6.615275 86.793676 3.40305 130.015592 3.275833 14.152871 9.922912 14.025655 21.499643 10.081933 34.825605-11.862969 58.424325-36.511228 78.04752-66.057335 0.826909 48.501413-39.150977 93.47256-87.684194 98.593037-6.297233 0.667888-12.658074 0.954126-19.018915 0.954126-143.882225 0.063608-287.796254 0.159021-431.678479 0-53.653694-0.063608-93.504364-31.040904-105.367333-80.750877-1.781036-7.442184-2.321707-14.693543-1.367581-22.103923z" fill="#EFC0AC" /><path d="M168.784918 495.350498c-9.096003-23.280678-15.106998-63.767432-13.803025-87.715998 15.106998 23.630525 17.174271 36.22499 13.803025 87.715998z" fill="#F1D3C4" /><path d="M866.473771 439.820356c-0.699693 18.382831-4.325372 36.097773-11.735752 53.081219 0.38165-25.63419-7.060534-52.095288 8.682548-75.916639 7.982856 6.678883 3.625679 15.011585 3.053204 22.83542z" fill="#F2D4C5" /><path d="M866.473771 439.820356c-2.480728-7.41038 2.544336-15.838494-3.053204-22.83542 1.049539-3.339442 2.099078-6.678883 3.180421-10.050128 2.830574 11.131472 3.530267 22.072119-0.127217 32.885548z" fill="#D0BAB2" /><path d="M510.743734 260.953505c-23.82135 0-47.6427 0.159021-71.432245-0.063608-17.428705-0.159021-24.393826-7.028729-24.839085-23.598721-0.445259-15.743082 8.523527-26.874554 24.139392-27.033574 48.692238-0.508867 97.384477-0.477063 146.044911 0 13.99385 0.127217 27.478833 14.534522 26.810945 26.461099-0.858714 15.170606-10.686213 24.012175-27.669658 24.171196-24.362021 0.222629-48.724043 0.063608-73.05426 0.063608z" fill="#FDE9E2" /><path d="M388.361152 476.299779c0.095413 20.100258-17.110662 37.369941-37.369942 37.592571-20.4183 0.222629-37.656179-16.347362-38.165046-36.733857-0.540671-20.736342 17.01525-38.324067 38.133242-38.165046 20.481908 0.127217 37.306333 16.888033 37.401746 37.306332z" fill="#143550" /><path d="M426.876044 490.802497c-49.996211-50.982141-105.430941-89.751468-166.431406-126.262695 76.361897 3.275833 146.903625 73.404106 166.431406 126.262695z" fill="#FFFFFF" /><path d="M653.671833 442.905364c28.528372-8.269093 51.681834 2.41712 56.261639 25.984036 3.339442 17.237879-5.756561 34.825605-21.62686 41.790725-16.156536 7.092338-34.730192 2.130882-45.416405-12.085598-10.20915-13.580396-9.445849-33.839675 1.940057-46.943007 2.735162-3.148616 5.947386-5.851974 8.936981-8.77796l-0.095412 0.031804z" fill="#143550" /><path d="M653.767245 442.841755c-15.552256 4.134547-23.853154 18.032984-35.747926 27.097183-6.965121 5.279498-11.608535 13.580396-18.605461 19.241545 17.937572-54.894058 96.175917-125.022331 157.748859-122.128149-20.259279 13.262354-39.691648 24.775476-57.756437 38.101438-15.870298 11.703948-34.698388 20.132062-45.734447 37.751592l0.095412-0.063609z" fill="#FFFFFF" /><path d="M510.203062 627.465168c-6.265428-0.477063-13.00792-4.99326-17.651334-12.62627-4.643414-7.633009-8.61894-15.743082-13.580395-23.153461-4.961456-7.378576-3.244029-11.099668 4.229959-15.774886 9.255024-5.756561 8.777961 2.544336 11.449514 6.265428 6.360841 8.841569 9.414045 25.602385 18.032984 25.825015 10.368171 0.222629 11.385906-16.601795 16.6336-25.888623 3.562071-6.265428 6.8061-7.982856 13.803025-4.738827 7.473988 3.466658 5.279498 7.41038 2.766966 12.40364-4.229959 8.428114-7.982856 17.110662-12.371836 25.475169-4.198155 8.173681-11.067863 12.530857-23.312483 12.212815z" fill="#143550" /><path d="M509.217132 699.978756c14.121067-1.462993 28.146722 1.59021 42.363202 2.79877 7.155946 0.60428 10.336367 2.607945 9.700282 10.5908-0.699693 8.39631-4.579806 9.127807-11.513122 7.919247-25.697798-4.484393-51.554617-5.120477-77.188807-0.349846-8.01466 1.494798-8.905178-2.766966-10.431779-7.887443-2.003665-6.678883 0.572476-9.286828 7.473988-10.336367 13.039724-2.035469 26.079448-3.7847 39.596236-2.735161z" fill="#163551" /><path d="M349.591825 456.994627c12.817095 0.254434 21.245209 9.127807 20.259279 20.513712-1.017735 11.703948-8.205485 18.60546-19.559586 18.192006-12.053794-0.413455-18.955306-7.601205-18.541852-20.513713 0.413455-12.499053 8.046464-17.174271 17.842159-18.192005z" fill="#FCFDFD" /><path d="M672.658943 457.376277c11.926577 0.031804 20.4183 8.205485 19.686803 19.623195-0.763301 11.672143-7.473988 18.255614-19.114327 18.859894-10.81343 0.540671-20.736342-9.286828-19.750411-19.973041 0.98593-11.322297 7.155946-18.22381 19.177935-18.510048z" fill="#FCFCFD" /></svg>